<svg id="SvgjsSvg1055" width="288" height="288" xmlns="http://www.w3.org/2000/svg" version="1.1" xmlns:xlink="http://www.w3.org/1999/xlink" xmlns:svgjs="http://svgjs.com/svgjs"><path id="SvgjsPath1061" d="M 144,0 C 5,0 0,5 0,144 0,283 5,288 144,288 283,288 288,283 288,144 288,5 283,0 144,0 Z" fill="#006ada" transform="matrix(0.7916,0,0,0.7916,30.009600000000006,30.009600000000006)"></path><defs id="SvgjsDefs1056"></defs><g id="SvgjsG1057" transform="matrix(0.8,0,0,0.8,28.80032806396484,28.80031280517578)"><svg xmlns="http://www.w3.org/2000/svg" width="288" height="288" enable-background="new 0 0 512 512" viewBox="0 0 512 512"><path fill="#ffffff" d="M212.156,224.734h-41.022c-1.184,0-2.323,0.469-3.158,1.309l-16.558,16.558h-3.439
		c-1.849-5.186-6.762-8.934-12.578-8.934c-7.389,0-13.4,6.013-13.4,13.4c0,7.388,6.012,13.4,13.4,13.4
		c5.815,0,10.729-3.747,12.578-8.934h5.289c1.184,0,2.323-0.469,3.157-1.309l16.559-16.558h39.173
		c1.85,5.186,6.763,8.934,12.579,8.934c3.395,0,6.458-1.309,8.822-3.395l18.201,10.126c-0.121,0.719-0.223,1.447-0.223,2.202
		c0,7.389,6.013,13.4,13.4,13.4c7.387,0,13.4-6.012,13.4-13.4c0-0.754-0.104-1.482-0.224-2.202l18.201-10.126
		c2.363,2.086,5.428,3.395,8.822,3.395c7.388,0,13.399-6.012,13.399-13.4c0-5.815-3.747-10.729-8.933-12.578v-19.516
		c5.186-1.849,8.933-6.762,8.933-12.578c0-7.388-6.012-13.4-13.399-13.4c-3.395,0-6.459,1.309-8.822,3.395l-18.201-10.126
		c0.12-0.715,0.224-1.443,0.224-2.198c0-7.388-6.014-13.4-13.4-13.4c-7.388,0-13.4,6.012-13.4,13.4c0,0.754,0.103,1.483,0.223,2.202
		l-18.201,10.126c-2.364-2.086-5.427-3.395-8.822-3.395c-5.816,0-10.729,3.748-12.579,8.934h-39.173l-16.559-16.558
		c-0.834-0.84-1.974-1.309-3.157-1.309h-5.289c-1.849-5.186-6.762-8.934-12.578-8.934c-7.389,0-13.4,6.012-13.4,13.4
		c0,7.388,6.012,13.4,13.4,13.4c5.815,0,10.729-3.748,12.578-8.934h3.439l16.558,16.558c0.835,0.84,1.975,1.309,3.158,1.309h41.022
		c1.349,3.784,4.328,6.763,8.111,8.111v5.289h-72.289c-1.849-5.186-6.762-8.934-12.578-8.934c-7.389,0-13.4,6.012-13.4,13.4
		c0,7.388,6.012,13.4,13.4,13.4c5.815,0,10.729-3.748,12.578-8.933h72.289v5.289C216.484,217.972,213.505,220.951,212.156,224.734
		L212.156,224.734z M135.401,251.534c-2.461,0-4.467-2.005-4.467-4.466c0-2.461,2.005-4.467,4.467-4.467
		c2.461,0,4.466,2.005,4.466,4.467C139.867,249.529,137.862,251.534,135.401,251.534z M135.401,171.134
		c-2.461,0-4.467-2.005-4.467-4.467c0-2.461,2.005-4.466,4.467-4.466c2.461,0,4.466,2.005,4.466,4.466
		C139.867,169.128,137.862,171.134,135.401,171.134z M135.401,211.334c-2.461,0-4.467-2.005-4.467-4.467s2.005-4.467,4.467-4.467
		c2.461,0,4.466,2.005,4.466,4.467S137.862,211.334,135.401,211.334z M224.735,233.667c-2.462,0-4.467-2.005-4.467-4.466
		c0-2.461,2.005-4.467,4.467-4.467c2.461,0,4.466,2.005,4.466,4.467C229.201,231.662,227.196,233.667,224.735,233.667z
		 M233.556,194.54l18.201,10.126c-0.121,0.719-0.223,1.447-0.223,2.202c0,0.755,0.103,1.483,0.223,2.202l-18.201,10.126
		c-1.269-1.117-2.734-1.993-4.355-2.573v-19.516C230.822,196.532,232.292,195.661,233.556,194.54L233.556,194.54z M296.313,219.196
		l-18.201-10.126c0.12-0.719,0.224-1.447,0.224-2.202c0-0.755-0.104-1.483-0.224-2.202l18.201-10.126
		c1.27,1.117,2.734,1.992,4.355,2.572v19.516C299.047,217.203,297.577,218.074,296.313,219.196z M237.911,226.999l18.202-10.126
		c1.268,1.116,2.734,1.992,4.355,2.573v19.515c-1.621,0.581-3.092,1.452-4.355,2.573l-18.202-10.126
		c0.121-0.724,0.224-1.452,0.224-2.207C238.135,228.446,238.031,227.718,237.911,226.999z M264.935,202.401
		c2.461,0,4.467,2.005,4.467,4.467s-2.006,4.467-4.467,4.467s-4.467-2.005-4.467-4.467S262.474,202.401,264.935,202.401z
		 M269.402,219.446c1.62-0.581,3.091-1.452,4.355-2.573l18.201,10.126c-0.12,0.719-0.224,1.447-0.224,2.202
		c0,0.754,0.104,1.483,0.224,2.202l-18.201,10.126c-1.27-1.117-2.735-1.992-4.355-2.573V219.446z M291.958,186.736l-18.201,10.126
		c-1.27-1.117-2.735-1.992-4.355-2.573v-19.515c1.62-0.581,3.091-1.452,4.355-2.573l18.201,10.126
		c-0.12,0.724-0.224,1.452-0.224,2.207C291.735,185.289,291.838,186.017,291.958,186.736z M260.468,194.289
		c-1.621,0.581-3.092,1.452-4.355,2.573l-18.202-10.126c0.121-0.719,0.224-1.447,0.224-2.202c0-0.754-0.103-1.483-0.224-2.202
		l18.202-10.126c1.268,1.117,2.734,1.992,4.355,2.573V194.289z M264.935,256.001c-2.461,0-4.467-2.005-4.467-4.467
		c0-2.461,2.006-4.466,4.467-4.466s4.467,2.005,4.467,4.466C269.402,253.996,267.396,256.001,264.935,256.001z M305.135,233.667
		c-2.462,0-4.467-2.005-4.467-4.466c0-2.461,2.005-4.467,4.467-4.467c2.461,0,4.467,2.005,4.467,4.467
		C309.602,231.662,307.596,233.667,305.135,233.667z M305.135,180.067c2.461,0,4.467,2.005,4.467,4.466
		c0,2.461-2.006,4.467-4.467,4.467c-2.462,0-4.467-2.005-4.467-4.467C300.668,182.073,302.673,180.067,305.135,180.067z
		 M264.935,157.733c2.461,0,4.467,2.006,4.467,4.467c0,2.461-2.006,4.466-4.467,4.466s-4.467-2.005-4.467-4.466
		C260.468,159.739,262.474,157.733,264.935,157.733z M224.735,180.067c2.461,0,4.466,2.005,4.466,4.466
		c0,2.461-2.005,4.467-4.466,4.467c-2.462,0-4.467-2.005-4.467-4.467C220.267,182.073,222.273,180.067,224.735,180.067z" class="colorFFF svgShape"></path><path fill="#ffffff" d="M215.801,390.003h71.467c2.466,0,4.467-2.002,4.467-4.468v-31.267h58.067c2.465,0,4.467-2.001,4.467-4.467
		v-53.6h31.267c1.421,0,2.756-0.675,3.601-1.823c0.844-1.147,1.089-2.621,0.665-3.979l-22.271-71.262
		c-0.894-27.104-12.337-52.117-32.313-70.551c-20.208-18.645-46.538-28.006-74.085-26.408
		c-31.705,1.854-61.077,19.251-78.573,46.543l7.521,4.82c15.96-24.893,42.715-40.759,71.579-42.447
		c25.107-1.479,49.098,7.075,67.496,24.057c18.461,17.032,28.926,40.236,29.471,65.334c0.019,0.773,0.246,1.501,0.631,2.131
		l20.203,64.65h-29.66c-2.465,0-4.467,2.002-4.467,4.467v17.867h-13.399c-7.388,0-13.4-6.013-13.4-13.399h-8.934
		c0,12.314,10.02,22.333,22.334,22.333h13.399v26.8h-58.067c-2.465,0-4.466,2.002-4.466,4.467v31.267h-62.534v-4.318
		c0-36.141-10.863-73.094-31.418-106.866c-4.547-7.468-7.982-15.531-10.216-23.959l-8.638,2.287
		c2.452,9.26,6.226,18.113,11.22,26.317c19.703,32.375,30.119,67.721,30.119,102.222v8.785
		C211.334,388.001,213.336,390.003,215.801,390.003L215.801,390.003z" class="colorFFF svgShape"></path></svg></g></svg>