<svg id="SvgjsSvg1062" width="288" height="288" xmlns="http://www.w3.org/2000/svg" version="1.1" xmlns:xlink="http://www.w3.org/1999/xlink" xmlns:svgjs="http://svgjs.com/svgjs"><path id="SvgjsPath1070" d="M 144,0 C 5,0 0,5 0,144 0,283 5,288 144,288 283,288 288,283 288,144 288,5 283,0 144,0 Z" fill="#006ada" transform="matrix(0.7916,0,0,0.7916,30.009600000000006,30.009600000000006)"></path><defs id="SvgjsDefs1063"></defs><g id="SvgjsG1064" transform="matrix(0.69,0,0,0.69,44.640000000000015,44.64007804870606)"><svg xmlns="http://www.w3.org/2000/svg" xmlns:xlink="http://www.w3.org/1999/xlink" width="288" height="288" viewBox="0 0 600 600"><defs><rect id="a" width="600" height="600" fill="#000000" class="color000 svgShape"></rect></defs><clipPath id="b"><use overflow="visible" xlink:href="#a"></use></clipPath><path fill="#ffffff" d="M275.818,377.213c-60.658,0-110.003-49.349-110.003-110.006   c0-60.658,49.345-110.003,110.003-110.003c60.657,0,110.007,49.345,110.007,110.003   C385.825,327.864,336.476,377.213,275.818,377.213 M275.818,168.23c-54.577,0-98.977,44.399-98.977,98.977   c0,54.577,44.4,98.98,98.977,98.98c54.576,0,98.98-44.403,98.98-98.98C374.799,212.629,330.395,168.23,275.818,168.23" clip-path="url(#b)" class="colorFFF svgShape"></path><path fill="#ffffff" d="M201.26,263.748h-7.025c0-43.078,35.046-78.124,78.125-78.124v7.024   C233.155,192.647,201.26,224.542,201.26,263.748" clip-path="url(#b)" class="colorFFF svgShape"></path><polygon fill="#ffffff" points="425.967 442.797 343.546 350.529 351.772 343.183 434.185 435.447" clip-path="url(#b)" class="colorFFF svgShape"></polygon></svg></g></svg>