<svg id="SvgjsSvg1098" width="288" height="288" xmlns="http://www.w3.org/2000/svg" version="1.1" xmlns:xlink="http://www.w3.org/1999/xlink" xmlns:svgjs="http://svgjs.com/svgjs"><path id="SvgjsPath1105" d="M 144,0 C 5,0 0,5 0,144 0,283 5,288 144,288 283,288 288,283 288,144 288,5 283,0 144,0 Z" fill="#006ada" transform="matrix(0.7916,0,0,0.7916,30.009600000000006,30.009600000000006)"></path><defs id="SvgjsDefs1099"></defs><g id="SvgjsG1100" transform="matrix(0.88,0,0,0.88,17.28002563476562,17.280017395019527)"><svg xmlns="http://www.w3.org/2000/svg" xmlns:xlink="http://www.w3.org/1999/xlink" width="288" height="288" viewBox="0 0 600 600"><defs><rect id="a" width="600" height="600" fill="#000000" class="color000 svgShape"></rect></defs><clipPath id="b"><use overflow="visible" xlink:href="#a"></use></clipPath><path fill="#ffffff" d="M300.006,435.604c-1.593,0-3.175-0.156-4.752-0.467   c-1.147-0.239-2.226-0.529-3.269-0.894c-25.791-8.995-47.168-21.651-63.559-37.638c-14.468-14.12-25.486-31.29-32.758-51.013   c-13.057-35.43-12.325-73.939-11.733-104.877c0.124-3.081,0.202-5.664,0.249-8.538c0.254-17.284,14-31.58,31.284-32.545   c28.436-1.587,50.4-10.82,69.11-29.059c8.917-8.186,21.938-8.186,30.559-0.291c19.006,18.53,40.97,27.763,69.406,29.35   c17.284,0.965,31.03,15.261,31.284,32.556c0.047,2.874,0.12,5.457,0.229,7.905l0.011,0.353c0.591,31,1.322,69.583-11.78,105.116   c-7.272,19.721-18.296,36.881-32.758,51.011c-16.361,15.978-37.712,28.655-63.473,37.661c-1.037,0.362-2.142,0.663-3.252,0.891   C303.18,435.447,301.588,435.604,300.006,435.604 M299.984,175.719c-2.666,0-5.332,0.975-7.454,2.925   c-20.832,20.293-45.103,30.543-76.429,32.297c-11.376,0.632-20.417,10.042-20.588,21.413c-0.047,2.987-0.125,5.675-0.24,8.248   c-0.581,30.314-1.291,67.641,11.029,101.068c6.681,18.136,16.786,33.895,30.04,46.82c15.193,14.826,35.159,26.612,59.352,35.046   c0.561,0.197,1.173,0.363,1.79,0.488c1.619,0.311,3.382,0.321,5.084-0.011c0.555-0.114,1.151-0.271,1.727-0.478   c24.204-8.456,44.149-20.261,59.317-35.077c13.248-12.936,23.358-28.695,30.039-46.819c12.367-33.521,11.656-70.91,11.086-100.966   l-0.006-0.177c-0.113-2.437-0.187-5.125-0.233-8.133c-0.171-11.381-9.212-20.791-20.588-21.423   c-31.326-1.754-55.599-11.993-76.389-32.255C305.364,176.704,302.672,175.719,299.984,175.719 M300,358.799   c-32.426,0-58.809-26.383-58.809-58.812c0-32.421,26.383-58.803,58.809-58.803s58.809,26.382,58.809,58.803   C358.809,332.416,332.426,358.799,300,358.799 M300,252.511c-26.18,0-47.479,21.3-47.479,47.475   c0,26.185,21.299,47.484,47.479,47.484c26.181,0,47.479-21.3,47.479-47.484C347.479,273.812,326.181,252.511,300,252.511" clip-path="url(#b)" class="colorFFF svgShape"></path><polygon fill="#ffffff" points="298.745 322.572 272.834 305.723 279.017 296.22 296.649 307.693 319.691 281.084 328.261 288.511" clip-path="url(#b)" class="colorFFF svgShape"></polygon></svg></g></svg>