<svg width="35" height="34" viewBox="0 0 35 34" fill="none" xmlns="http://www.w3.org/2000/svg">
<rect x="1" y="18" width="8" height="13" fill="#006ada"/>
<rect x="26" y="18" width="8" height="13" fill="#006ada"/>
<rect x="9" y="14" width="17" height="17" fill="#38A6F8"/>
<rect x="13" y="7" width="9" height="5" fill="#38A6F8"/>
<path d="M7.90137 15.8067H11.853L17.4981 13.6265L23.1433 15.8067H27.0949V15.2616L17.4981 11.4463L7.90137 15.2616V15.8067Z" fill="white"/>
<path d="M25.9658 26.1624H9.03027V27.7975H25.9658V26.1624Z" fill="#1C89D9"/>
<path d="M22.0147 6.54079C22.0147 6.54079 21.4502 4.3606 18.6276 4.3606H16.3695C13.5469 4.3606 12.9824 6.54079 12.9824 6.54079H22.0147Z" fill="#006ada"/>
<path d="M3.95227 22.3472H2.82324V23.4373H3.95227V22.3472Z" fill="white"/>
<path d="M6.77551 22.3472H5.64648V23.4373H6.77551V22.3472Z" fill="white"/>
<path d="M18.0636 20.1667H16.9346V23.437H18.0636V20.1667Z" fill="#FDFFFE"/>
<path d="M14.6769 20.1667H13.5479V23.437H14.6769V20.1667Z" fill="#FDFFFE"/>
<path d="M11.2911 20.7122H10.1621V23.4374H11.2911V20.7122Z" fill="#FDFFFE"/>
<path d="M24.839 20.7122H23.71V23.4374H24.839V20.7122Z" fill="#FDFFFE"/>
<path d="M21.4523 20.1667H20.3232V23.437H21.4523V20.1667Z" fill="#FDFFFE"/>
<path d="M33.871 17.9866V16.8966H32.7419V17.9866H26.5322V16.3515H27.6613V14.8962L25.9677 14.2231V13.0812H24.8387V13.774L22.5806 12.8763V9.26584H23.7097V8.17575H22.5806V5.99555H22.4124C22.028 5.15509 21.0469 4.03936 19.1935 3.84696V1.63516H18.0645V0H16.9355V1.63516H15.8065V3.84696C13.9531 4.03938 12.972 5.15509 12.5876 5.99555H12.4194V8.17575H11.2903V9.26584H12.4194V12.8768L10.1613 13.7745V13.0812H9.03226V14.2231L7.33871 14.8962V16.3515H8.46776V17.9867H2.25806V16.8966H1.12903V17.9866H0V33.7931H35V17.9866H33.871ZM33.871 19.0767V20.1668H26.5322V19.0767H33.871V19.0767ZM11.8548 31.6129H13.5484V32.703H11.8548V31.6129V31.6129ZM10.7258 32.703H9.59677V31.6129H10.7258V32.703ZM14.6774 31.6129H16.9355V32.703H14.6774V31.6129ZM18.0645 31.6129H20.3226V32.703H18.0645V31.6129ZM21.4516 31.6129H23.1451V32.703H21.4516V31.6129ZM24.2742 31.6129H25.4032V32.703H24.2742V31.6129ZM24.2742 30.5228V28.8877H23.1451V30.5228H21.4516V28.3426H20.3226V30.5228H18.0645V28.3426H16.9355V30.5228H14.6774V28.3426H13.5484V30.5228H11.8548V28.8877H10.7258V30.5228H9.59677V26.7075H11.8548V27.7976H12.9839V26.7075H15.2419V27.7976H16.371V26.7075H18.629V27.7976H19.7581V26.7075H22.0161V27.7976H23.1451V26.7075H25.4032V30.5228H24.2742ZM25.4032 25.6174H23.1452V18.5317H25.4032V25.6174ZM22.0161 25.6174H19.7581V18.5317H22.0161V25.6174ZM18.629 25.6174H16.371V18.5317H18.629V25.6174ZM15.2419 25.6174H12.9839V18.5317H15.2419V25.6174ZM11.8548 25.6174H9.59677V18.5317H11.8548V25.6174ZM8.46774 26.1624H6.77418V24.5273H5.64515V26.1624H3.95159V24.5273H2.82256V26.1624H1.12903V21.257H8.46774V26.1624ZM8.46774 27.2525V30.5228H1.12903V27.2525H8.46774ZM26.5323 27.2525H33.871V30.5228H26.5323V27.2525ZM32.1774 26.1624V24.5273H31.0484V26.1624H29.3548V24.5273H28.2258V26.1624H26.5322V21.257H33.871V26.1624H32.1774ZM23.2541 15.2614L17.5 13.0392L11.7459 15.2614H9.59677H9.38565L17.5 12.0353L25.6144 15.2614H25.4032H23.2541ZM20.2136 15.2614H14.7864L17.5 14.2133L20.2136 15.2614ZM19.7581 9.26584V11.7545L17.5 10.8568L15.2419 11.7545V9.26584H19.7581ZM21.4516 12.4277L20.8871 12.2031V9.26584H21.4516V12.4277ZM21.1084 5.99555H20.226C20.1555 5.7116 20.0505 5.40798 19.9054 5.11857C20.4931 5.3355 20.8724 5.68159 21.1084 5.99555ZM16.9355 4.90545H18.0645C18.5822 4.90545 18.8842 5.50717 19.0445 5.99555H15.9532C16.1119 5.50719 16.4127 4.90545 16.9355 4.90545ZM16.9355 2.72526H18.0645V3.81535H16.9355V2.72526ZM15.094 5.11965C14.949 5.40854 14.844 5.71157 14.774 5.99555H13.8922C14.1281 5.68269 14.5075 5.33658 15.094 5.11965ZM13.5484 7.08565H21.4516V8.17575H13.5484V7.08565ZM13.5484 9.26584H14.1129V12.2031L13.5484 12.4277V9.26584ZM25.4032 16.3515V17.4416H9.59677V16.3515H25.4032ZM8.46774 19.0767V20.1668H1.12903V19.0767H8.46774V19.0767ZM1.12903 31.6129H8.46774V32.703H1.12903V31.6129ZM26.5323 32.703V31.6129H33.871V32.703H26.5323Z" fill="#0068DC"/>
<path d="M32.1769 22.3472H31.0479V23.4373H32.1769V22.3472Z" fill="white"/>
<path d="M29.3546 22.3472H28.2256V23.4373H29.3546V22.3472Z" fill="white"/>
</svg>
