<svg width="34" height="23" viewBox="0 0 34 23" fill="none" xmlns="http://www.w3.org/2000/svg">
<path d="M16.8056 0.91304C16.5637 0.397151 15.8734 0.397151 15.6315 0.91304L13.3163 5.85152C13.0346 6.45254 12.2302 6.45254 11.9485 5.85152C11.7066 5.33563 11.0162 5.33563 10.7744 5.85152L6.51758 14.79L10.1153 22.4642H13.308L20.1416 7.88738L16.8056 0.91304Z" fill="#006ada"/>
<path d="M13.3643 5.85145C13.646 6.45247 14.4503 6.45247 14.7321 5.85145L16.9264 1.17077L16.8031 0.91304C16.5613 0.397151 15.8709 0.397151 15.6291 0.91304L13.3369 5.80237C13.3462 5.81859 13.3561 5.83396 13.3643 5.85145Z" fill="#168BE3"/>
<path d="M8.01548 14.6184L12.0896 6.06349C12.0342 6.00372 11.9851 5.93381 11.9465 5.85152C11.7046 5.33563 11.0143 5.33563 10.7725 5.85152L6.51562 14.79L10.1133 22.4642H11.5315L8.01448 14.9621C7.96375 14.8539 7.96408 14.7264 8.01548 14.6184Z" fill="#168BE3"/>
<path d="M19.3238 21.5649C19.332 20.941 19.7103 20.6405 20.1884 20.6994C20.3056 20.7138 20.4112 20.6318 20.4333 20.5082C20.6839 19.1099 22.4414 18.7958 23.1047 20.038C23.2799 20.366 23.5153 19.9654 24.1055 20.1689C24.1832 20.1957 24.2667 20.1831 24.3336 20.1332C24.6246 19.9162 24.9767 19.8448 25.305 19.9144C25.413 19.9373 25.5194 19.8636 25.534 19.7472C25.6681 18.677 26.5257 17.8511 27.5658 17.8511C28.3335 17.8511 29.0011 18.3015 29.3526 18.9675C29.4331 19.1199 29.5988 19.1965 29.7549 19.143C30.4732 18.897 31.2431 19.1999 31.653 19.8683L23.779 2.93084C23.4946 2.32416 22.6829 2.32416 22.3985 2.93084L13.2412 22.4641H20.0874C19.588 22.464 19.3167 22.0993 19.3238 21.5649Z" fill="#006ada"/>
<path d="M23.779 2.93084C23.4946 2.32416 22.6829 2.32416 22.3985 2.93084L13.2412 22.4641H14.6579L23.797 2.96973L23.779 2.93084Z" fill="#168BE3"/>
<path d="M10.1798 22.464H1.26562L5.41031 13.6232C5.539 13.3486 5.90636 13.3486 6.03519 13.6232L10.1798 22.464Z" fill="#006ada"/>
<path d="M6.03512 13.6232C5.90643 13.3486 5.53907 13.3486 5.41024 13.6232L1.26562 22.464H2.62702L6.40341 14.4087L6.03512 13.6232Z" fill="#168BE3"/>
<path d="M19.8928 10.113C20.153 10.3697 20.5625 10.3384 20.7858 10.0448L21.3561 9.29446C21.5739 9.00805 21.9705 8.97009 22.2326 9.21061L23.2966 10.187C23.5418 10.412 23.9088 10.3952 24.135 10.1487L26.1388 7.96508L23.7787 2.93084C23.4943 2.32416 22.6826 2.32416 22.3982 2.93084L19.3037 9.53166L19.8928 10.113Z" fill="#38A6F8"/>
<path d="M23.7786 2.93087C23.7574 2.88569 23.7325 2.84496 23.706 2.80657C23.3755 2.32879 22.6614 2.36944 22.3982 2.93087L19.7665 8.54453L19.3037 9.53175L19.8929 10.1129C20.027 10.2452 20.2007 10.3004 20.3681 10.2833L23.7968 2.96968L23.7786 2.93087Z" fill="#168BE3"/>
<path d="M3.32227 18.0782L3.4418 18.1961C3.64155 18.3932 3.95578 18.3692 4.12718 18.1438L4.56493 17.568C4.73207 17.3481 5.03641 17.319 5.23762 17.5036L6.05422 18.253C6.24242 18.4257 6.52398 18.4128 6.6977 18.2236L7.68702 17.1455L6.03563 13.6232C5.90693 13.3486 5.53957 13.3486 5.41074 13.6232L3.32227 18.0782Z" fill="#38A6F8"/>
<path d="M5.41081 13.6232L4.37062 15.8421L3.32227 18.0783L3.4418 18.1962C3.64155 18.3933 3.95578 18.3692 4.12718 18.1439L4.56493 17.5681C4.67536 17.4227 4.84576 17.3614 5.00666 17.3893L6.40392 14.4089L6.03563 13.6232C5.99538 13.5374 5.93183 13.4784 5.85958 13.4462C5.81622 13.4269 5.76974 13.4172 5.72325 13.4172C5.5992 13.4172 5.47516 13.4859 5.41081 13.6232Z" fill="#168BE3"/>
<path d="M32.4458 20.1384C32.3347 20.137 32.2275 20.1536 32.1265 20.1854C31.9938 20.2272 31.8502 20.1548 31.7972 20.0186C31.4734 19.1848 30.5973 18.7124 29.7535 19.0014C29.5974 19.0549 29.4317 18.9783 29.3512 18.8259C28.9997 18.1598 28.3321 17.7095 27.5644 17.7095C26.5243 17.7095 25.6666 18.5354 25.5326 19.6055C25.518 19.722 25.4116 19.7958 25.3036 19.7728C24.9753 19.7032 24.6233 19.7745 24.3322 19.9916C24.2653 20.0415 24.1818 20.0541 24.1041 20.0273C23.5121 19.8232 23.279 20.2253 23.1033 19.8964C22.44 18.6542 20.6826 18.9683 20.4319 20.3666C20.4098 20.4902 20.3042 20.5722 20.187 20.5578C19.6566 20.4924 19.1968 20.9458 19.1895 21.4941C19.1825 22.0284 19.5865 22.464 20.086 22.464C21.2803 22.464 30.9348 22.464 32.4325 22.464C33.0495 22.464 33.5469 21.9174 33.5219 21.2533C33.4989 20.6431 33.0183 20.1458 32.4458 20.1384Z" fill="white"/>
<path d="M33.9987 21.2369C33.962 20.2616 33.1096 19.4673 32.1549 19.6343C31.7714 18.852 33.4475 22.4194 26.5621 7.73242L24.202 2.69818C23.7337 1.69905 22.3974 1.70238 21.9306 2.69818C21.719 3.14955 20.3386 6.09417 20.0524 6.70432L17.2283 0.680238C16.8033 -0.226746 15.5884 -0.226746 15.1633 0.680238L12.8482 5.61865C12.7502 5.82751 12.4698 5.82907 12.3712 5.61865C11.946 4.71173 10.7313 4.7118 10.3061 5.61865L6.56134 13.6069L6.45987 13.3904C6.14597 12.7209 5.2548 12.7278 4.94415 13.3904L2.85554 17.8455C2.85554 17.8454 2.85554 17.8456 2.85554 17.8455L0.937059 21.9376H0.498047C0.222926 21.9376 0 22.1755 0 22.4688C0 22.7622 0.222926 23 0.498047 23C1.03587 23 25.046 23 25.5822 23C25.8574 23 26.0803 22.7622 26.0803 22.4688C26.0803 22.1755 25.8574 21.9376 25.5822 21.9376H20.0651C19.8425 21.9376 19.6636 21.7439 19.6666 21.5064C19.6697 21.2736 19.8723 21.0612 20.1088 21.0903C20.4883 21.1373 20.8287 20.8711 20.9002 20.4712C20.9852 19.997 21.3757 19.6532 21.8283 19.6532C22.1612 19.6532 22.4787 19.844 22.6497 20.1641C22.8135 20.4711 23.1472 20.6277 23.4619 20.554C23.5343 20.5371 23.701 20.4587 23.9302 20.5376C24.5126 20.7379 24.6238 20.1795 25.1854 20.2985C25.5766 20.3817 25.953 20.0989 26.0054 19.6806C26.1079 18.8625 26.7691 18.2455 27.5434 18.2455C28.1025 18.2455 28.6209 18.5696 28.8962 19.0912C29.0559 19.394 29.3605 19.5677 29.6709 19.553C29.7425 19.5496 29.8144 19.5362 29.885 19.512C30.476 19.3098 31.0901 19.6448 31.3161 20.2266C31.4672 20.6158 31.8673 20.8192 32.2467 20.6997C32.6204 20.5819 32.9886 20.8863 33.0034 21.2794C33.017 21.6415 32.7469 21.9376 32.4116 21.9376H27.9066C27.6315 21.9376 27.4086 22.1755 27.4086 22.4688C27.4086 22.7622 27.6315 23 27.9066 23H32.4116C33.3131 23 34.0349 22.2029 33.9987 21.2369ZM22.8216 3.1732C22.9227 2.95768 23.2104 2.95853 23.3111 3.1732C23.5032 3.583 24.9549 6.6796 25.5124 7.86882L23.7569 9.78181C23.7144 9.82805 23.6452 9.83117 23.5993 9.78903L22.5354 8.81264C22.0604 8.37657 21.3421 8.44498 20.9471 8.96456L20.3767 9.71495C20.335 9.76991 20.2584 9.77642 20.2089 9.72769L19.8943 9.41734C21.8687 5.20581 21.8178 5.31445 22.8216 3.1732ZM5.70191 14.1494L7.06138 17.0493L6.33828 17.8373L5.54107 17.1057C5.1856 16.7794 4.68636 16.7841 4.34158 17.0509L5.70191 14.1494ZM2.05083 21.9376L3.50572 18.8341C4.21952 19.0248 4.5394 18.4218 4.9128 17.9306L5.70809 18.6605C6.09457 19.0152 6.67629 18.9879 7.03236 18.6L7.53273 18.0547L9.35313 21.9376H2.05083ZM12.911 21.9376H10.4668L7.11816 14.7946L11.1972 6.09381C11.2559 5.9688 11.4217 5.96873 11.4804 6.09388C11.9459 7.08685 13.2742 7.08578 13.7393 6.09388L16.0544 1.15533C16.113 1.03032 16.2788 1.03032 16.3375 1.15533L19.4958 7.89213C19.2135 8.49385 13.4555 20.7763 12.911 21.9376ZM30.1833 18.3914C30.0212 18.3958 29.8609 18.4195 29.7043 18.4623C29.2386 17.6677 28.4199 17.1831 27.5435 17.1831C26.3747 17.1831 25.3629 18.0392 25.0765 19.2212C24.7487 19.2133 24.4185 19.3027 24.1244 19.4926C23.8936 19.4317 23.6502 19.4245 23.4161 19.4717C23.0549 18.924 22.4619 18.5908 21.8283 18.5908C20.9777 18.5908 20.2346 19.1819 19.9801 20.028C19.2645 20.0743 18.6811 20.7063 18.6707 21.4913C18.6687 21.637 18.6907 21.8011 18.7279 21.9375H14.0249L19.4305 10.4068L19.5326 10.5076C20.0034 10.9721 20.7465 10.9156 21.1507 10.384L21.721 9.63364C21.7623 9.57946 21.8364 9.57259 21.8858 9.61785L22.9498 10.5943C23.3928 11.0008 24.0602 10.9703 24.469 10.5249L25.9838 8.87411L30.4503 18.4014C30.3628 18.3923 30.2721 18.3889 30.1833 18.3914Z" fill="#0068DC"/>
</svg>
