<svg width="19" height="38" viewBox="0 0 19 38" fill="none" xmlns="http://www.w3.org/2000/svg">
<path d="M11.1104 20.6842L15.6077 17.9661L17.9562 21.6818L12.0846 26.7231" fill="#38A6F8"/>
<path d="M5.03574 6.00513L6.07934 15.4633L3.61934 17.2649L3.3212 8.0319L2.46017 7.28496L2.24023 6.00513H5.03574Z" fill="#006ada"/>
<path d="M13.3722 19.3172L15.8322 37.4371H3.644L5.20346 20.5663L3.62012 17.265L6.08012 15.4634L7.9961 15.9431L11.7535 13.7458L12.4776 17.0652L13.3722 19.3172Z" fill="#006ada"/>
<path d="M9.77678 15.9137C8.53904 15.4852 7.70801 14.3127 7.70801 12.9947C7.70801 11.8743 8.61002 10.9661 9.72261 10.9661H9.83095C10.9436 10.9661 11.8456 11.8744 11.8456 12.9947C11.8456 14.3127 11.0145 15.4853 9.77678 15.9137Z" fill="white"/>
<path d="M5.93126 3.97852H1.57031V6.00529H5.93126V3.97852Z" fill="white"/>
<path d="M4.8496 1.68904L2.83691 0.562988V2.10185C2.83691 2.66154 3.28748 3.11524 3.84329 3.11524C4.39911 3.11524 4.84967 2.66154 4.84967 2.10185V1.68904H4.8496Z" fill="white"/>
<path d="M17.873 24.1709L16.5377 25.2537L15.5078 23.4998L16.4704 22.417L17.873 24.1709Z" fill="white"/>
<path d="M8.8048 33.2825L7.8335 37.4374L7.81036 37.5365L4.2985 37.4374L3.64547 37.4186L5.15054 21.1423L5.20346 20.5666L4.69733 19.5119L3.62012 17.2652L5.02605 16.2354L5.17811 18.5218L6.1696 19.0443L6.81666 23.7741L7.19683 24.3799L4.98058 30.5044C4.82705 30.9285 4.97313 31.4037 5.33768 31.6664L6.81666 32.7323L6.12117 34.8837L8.8048 33.2825Z" fill="#38A6F8"/>
<path d="M4.56781 16.9685L3.62032 17.265L3.34223 8.66112C3.32955 8.26026 3.14993 7.88271 2.84796 7.62071C2.72273 7.51265 2.61836 7.38351 2.53788 7.24086C2.45739 7.09821 2.40218 6.94213 2.37388 6.77773L2.24121 6.00533L3.27663 5.62622L4.20768 7.53514L4.56781 16.9685Z" fill="#38A6F8"/>
<path d="M6.50553 10.6577L7.51146 11.6707C7.28165 12.0585 7.14912 12.5113 7.14912 12.9948C7.14912 14.5527 8.13213 15.9396 9.59527 16.4461C9.65416 16.4665 9.71555 16.4767 9.77702 16.4767C9.8385 16.4767 9.89989 16.4664 9.95878 16.4461C10.5852 16.2292 11.1232 15.8507 11.5342 15.3666L11.623 15.774C11.6803 16.037 11.9116 16.2164 12.1685 16.2164C12.2081 16.2164 12.2485 16.2121 12.2888 16.2032C12.5904 16.1365 12.7813 15.8363 12.7151 15.5326L12.3264 13.7487C12.3396 13.6854 12.3516 13.6219 12.3614 13.5578H13.3869C13.6957 13.5578 13.946 13.3057 13.946 12.9948C13.946 12.6839 13.6957 12.4319 13.3869 12.4319H12.343C12.2829 12.1597 12.1804 11.9035 12.0425 11.6708L13.0485 10.6578C13.2668 10.438 13.2668 10.0816 13.0485 9.86166C12.8301 9.64183 12.4761 9.64183 12.2578 9.86166L11.2755 10.8509C10.9965 10.6597 10.6785 10.5224 10.3361 10.4536V8.55734C10.3361 8.24643 10.0858 7.99438 9.77702 7.99438C9.46827 7.99438 9.21797 8.24643 9.21797 8.55734V10.4535C8.87568 10.5223 8.55757 10.6596 8.27859 10.8508L7.29624 9.86159C7.07792 9.64175 6.72384 9.64175 6.5056 9.86159C6.28721 10.0815 6.28721 10.4379 6.50553 10.6577ZM9.77702 15.3104C9.10763 15.0186 8.60754 14.4503 8.38907 13.7683C8.46153 13.6022 8.56494 13.4489 8.69414 13.3189C8.96847 13.0422 9.33376 12.8897 9.7227 12.8897H9.83135C10.4182 12.8897 10.936 13.237 11.1651 13.768C10.9466 14.4501 10.4465 15.0184 9.77702 15.3104ZM9.72278 11.5291H9.8312C10.2476 11.5291 10.6227 11.707 10.8883 11.9903C10.5638 11.8441 10.2056 11.7638 9.83127 11.7638H9.72263C9.35116 11.7638 8.99213 11.843 8.66377 11.9924C8.92948 11.7079 9.30531 11.5291 9.72278 11.5291Z" fill="#0068DC"/>
<path d="M1.57092 6.56826H1.77103L1.91019 7.38081C1.93223 7.50958 1.99805 7.62648 2.09637 7.71176L2.77196 8.29742L2.99403 15.1739C3.00413 15.4847 3.26534 15.7286 3.571 15.7183C3.87961 15.7081 4.12166 15.4481 4.11163 15.1373L3.88543 8.13354L4.51871 6.56826H4.53691L5.48941 15.2005L3.2921 16.8096C3.07341 16.9697 2.99986 17.2645 3.11742 17.5096L4.63258 20.6698L3.96665 27.876C3.93806 28.1856 4.16404 28.4599 4.47154 28.4887C4.48915 28.4904 4.50662 28.4912 4.52402 28.4912C4.80948 28.4912 5.05307 28.2722 5.08005 27.9803L5.75438 20.6824L6.57753 18.1934C6.67512 17.8984 6.51672 17.5796 6.22374 17.4814C5.93076 17.3832 5.61427 17.5427 5.51668 17.8377L5.10843 19.0723L4.32759 17.4435L6.06137 16.1738L7.54027 17.3892C7.64412 17.4745 7.76913 17.516 7.89347 17.516C8.05562 17.516 8.21645 17.4453 8.32693 17.309C8.52218 17.0681 8.48651 16.7135 8.24733 16.5169L6.61151 15.1726L5.66196 6.56826H5.93179C6.24055 6.56826 6.49085 6.31621 6.49085 6.00531V3.97846C6.49085 3.66756 6.24055 3.41551 5.93179 3.41551H4.70791C5.13054 3.13295 5.40996 2.64986 5.40996 2.10183V1.68902C5.40996 1.48455 5.29984 1.29618 5.12243 1.19687L3.10975 0.0708206C2.93654 -0.0260353 2.72538 -0.0233634 2.55467 0.077723C2.3839 0.178884 2.27909 0.363467 2.27909 0.562968V2.10183C2.27909 2.64979 2.55858 3.13295 2.98113 3.41551H1.57078C1.26202 3.41551 1.01172 3.66756 1.01172 3.97846V6.00524C1.01179 6.31614 1.26217 6.56826 1.57092 6.56826ZM3.39728 1.5198L4.29184 2.02026V2.10175C4.29184 2.35009 4.09122 2.55212 3.8446 2.55212C3.59798 2.55212 3.39735 2.35002 3.39735 2.10175L3.39728 1.5198ZM3.09825 7.09455L2.97789 6.9902L2.90559 6.56819H3.31119L3.09825 7.09455ZM2.12998 4.54149H5.37274V5.44228H5.0373H4.1375H4.13456H2.24187H2.13005L2.12998 4.54149Z" fill="#0068DC"/>
<path d="M14.9418 19.0251L15.4287 18.7307L17.4847 21.9839C17.5912 22.1525 17.7721 22.2447 17.9568 22.2447C18.0595 22.2447 18.1634 22.2163 18.2565 22.1566C18.5171 21.9897 18.5938 21.6417 18.428 21.3794L16.0795 17.6636C15.9167 17.4061 15.58 17.3261 15.3202 17.4832L14.3662 18.0598C14.1015 18.2198 14.0156 18.5657 14.1746 18.8322C14.3335 19.0986 14.677 19.1851 14.9418 19.0251Z" fill="#0068DC"/>
<path d="M12.1284 19.9746C11.8443 19.8528 11.5159 19.986 11.3951 20.2721L5.20776 34.9098C5.11268 35.1346 5.17268 35.3958 5.35613 35.5558C5.46035 35.6467 5.59089 35.6933 5.7223 35.6932C5.82217 35.6932 5.92264 35.6663 6.01226 35.6116L11.3426 32.3544C11.6065 32.1931 11.6906 31.8468 11.5305 31.581C11.3704 31.3153 11.0265 31.2305 10.7625 31.3918L6.91678 33.7418L12.424 20.713C12.5448 20.427 12.4125 20.0963 12.1284 19.9746Z" fill="#0068DC"/>
<path d="M18.4409 36.8743H16.3196L13.9259 19.2412C13.9197 19.1956 13.908 19.151 13.8911 19.1083L12.9966 16.8565C12.9233 16.672 12.759 16.5401 12.5639 16.5093C12.4624 16.4934 12.3607 16.5066 12.2687 16.544C12.2669 16.5447 12.2651 16.5448 12.2633 16.5456L8.19187 18.2461C7.90663 18.3653 7.77138 18.6946 7.88968 18.9819C7.97894 19.1986 8.18701 19.3293 8.40635 19.3293C8.47778 19.3293 8.5503 19.3154 8.6204 19.2862L10.6116 18.4545L6.33515 23.662C6.13836 23.9016 6.17175 24.2565 6.40967 24.4546C6.64759 24.6527 7.00005 24.619 7.19677 24.3795L12.308 18.1552L12.8271 19.4621L14.1644 29.3131L12.2721 30.4694C12.0081 30.6307 11.924 30.977 12.0842 31.2428C12.1894 31.4174 12.3737 31.5138 12.5627 31.5138C12.6615 31.5138 12.7616 31.4874 12.8521 31.4321L14.3295 30.5293L15.1909 36.8743H4.25768L4.90135 29.9082C4.92995 29.5986 4.70397 29.3242 4.39647 29.2954C4.08912 29.2668 3.81655 29.4942 3.78796 29.8038L3.13463 36.8741H0.559057C0.250304 36.8741 0 37.1262 0 37.4371C0 37.748 0.250304 38 0.559057 38H3.64416H15.8318H18.4409C18.7497 38 19 37.748 19 37.4371C19.0001 37.1262 18.7497 36.8743 18.4409 36.8743Z" fill="#0068DC"/>
<path d="M16.9064 22.0641C16.8034 21.9353 16.6496 21.8587 16.4855 21.8544C16.3228 21.8505 16.1639 21.9186 16.0543 22.0417L15.0917 23.1246C14.9292 23.3075 14.903 23.5753 15.0271 23.7866L16.057 25.5405C16.1396 25.6811 16.2788 25.7787 16.4384 25.8079C16.4716 25.814 16.505 25.8169 16.5381 25.8169C16.6647 25.8169 16.7887 25.7735 16.8888 25.6924L18.2242 24.6095C18.4647 24.4144 18.5026 24.0601 18.3089 23.8179L16.9064 22.0641ZM16.6907 24.4075L16.198 23.5684L16.4484 23.2867L17.0875 24.0858L16.6907 24.4075Z" fill="#0068DC"/>
</svg>
