<svg width="24" height="35" viewBox="0 0 24 35" fill="none" xmlns="http://www.w3.org/2000/svg">
<path fill-rule="evenodd" clip-rule="evenodd" d="M15.4628 0C15.5715 0 15.6802 0 15.7889 0C16.083 0.148663 16.177 0.404295 16.1649 0.731438C16.1562 0.965625 16.1742 1.20075 16.1803 1.43554C16.174 1.81018 16.1688 2.18483 16.1608 2.55939C16.1587 2.65705 16.1666 2.72813 16.2827 2.75769C16.6072 2.84057 16.6832 3.10218 16.6832 3.40993C16.6832 4.0127 16.6933 4.61581 16.678 5.21823C16.6725 5.43362 16.7335 5.50872 16.9316 5.4754C17.006 5.46284 17.0826 5.46455 17.1582 5.45985C17.4556 5.486 17.6536 5.64218 17.7385 5.94651C17.7355 6.80798 17.7363 7.66954 17.7262 8.53093C17.7243 8.70104 17.758 8.77648 17.9375 8.76435C18.1745 8.74829 18.4134 8.76512 18.6513 8.75922C18.9505 8.75188 19.1768 8.85996 19.2866 9.1701C19.2961 9.59968 19.3057 10.0293 19.3153 10.4588C19.31 11.0503 19.3205 11.6426 19.2926 12.2329C19.2787 12.5277 19.3472 12.6196 19.6414 12.6061C20.1788 12.5812 20.3403 12.7714 20.3452 13.3312C20.3478 13.6268 20.3537 13.9223 20.3582 14.218C20.3589 14.6511 20.3595 15.0842 20.3602 15.5173C20.355 15.8812 20.371 16.2471 20.3385 16.6083C20.3096 16.9292 20.4197 17.0036 20.7103 16.9931C21.2269 16.9745 21.386 17.162 21.3902 17.7062C21.3944 18.2296 21.3988 18.7529 21.4032 19.2763C21.4038 19.7093 21.4044 20.1425 21.405 20.5757C21.4 20.8919 21.4154 21.2102 21.3846 21.5236C21.3529 21.8464 21.4436 21.9506 21.7649 21.933C22.2768 21.9048 22.4318 22.0938 22.4355 22.6393C22.4395 23.2044 22.4438 23.7695 22.4479 24.3345C22.4227 24.5865 22.4791 24.9182 22.2094 25.018C21.873 25.1425 21.8992 25.3766 21.9116 25.6431C21.9199 25.8222 21.922 26.0016 21.9269 26.181C21.9221 26.2484 21.9138 26.3158 21.9129 26.3834C21.9068 26.854 21.9073 26.854 22.3463 26.854C22.5299 26.8541 22.7136 26.8502 22.8972 26.855C23.2912 26.8651 23.4698 27.0452 23.4787 27.4584C23.4872 27.8544 23.4985 28.2521 23.4745 28.6466C23.4579 28.9205 23.5128 29.0969 23.7976 29.127C24.1165 29.5566 24.066 29.8101 23.5933 30.046C23.4886 30.0982 23.4773 30.1579 23.4807 30.2515C23.486 30.3985 23.4898 30.5455 23.4943 30.6925C23.4896 31.0222 23.4889 31.3523 23.479 31.6819C23.4697 31.9926 23.3287 32.1911 23.0254 32.2568C22.8311 32.2989 22.5567 32.14 22.4577 32.3387C22.3683 32.5181 22.4365 32.7838 22.4356 33.0116C22.4352 33.114 22.4343 33.2165 22.4358 33.319C22.4387 33.5228 22.3768 33.7707 22.4658 33.9183C22.5547 34.0657 22.8072 33.9523 22.9866 33.9743C23.2718 34.0093 23.469 34.2082 23.4754 34.4753C23.482 34.7532 23.2755 34.9695 22.974 34.9962C22.8984 35.0029 22.8219 34.9987 22.7459 34.9987C15.5857 34.9988 8.42547 34.9989 1.26519 34.9984C1.16752 34.9984 1.06805 35.0051 0.972499 34.989C0.697659 34.9425 0.539571 34.7567 0.542832 34.4754C0.54593 34.2102 0.70141 34.0296 0.960596 33.9857C1.08803 33.9641 1.22206 33.9615 1.35039 33.9762C1.54183 33.9982 1.58651 33.9164 1.57974 33.7287C1.56637 33.3649 1.55341 32.9982 1.58259 32.6364C1.60811 32.3195 1.50612 32.2404 1.21391 32.2537C0.696273 32.2771 0.535087 32.0892 0.530603 31.5453C0.527342 31.1471 0.522858 30.749 0.519026 30.3508C0.516335 30.2405 0.602268 30.0933 0.419965 30.0541C0.177982 30.0021 0.0737853 29.8171 0 29.5982C0.0335907 29.3608 0.112676 29.1309 0.354007 29.0795C0.545605 29.0387 0.531663 28.9292 0.531174 28.7915C0.529625 28.3482 0.524244 27.9046 0.532723 27.4615C0.540631 27.0454 0.719427 26.8639 1.11542 26.8553C1.37567 26.8497 1.63649 26.8459 1.89641 26.8572C2.05001 26.8639 2.10586 26.8152 2.10235 26.6482C2.09306 26.205 2.09779 25.7615 2.10031 25.3182C2.10088 25.2199 2.09192 25.142 1.98055 25.1139C1.63543 25.0268 1.5742 24.7533 1.5746 24.434C1.57534 23.991 1.56767 23.548 1.5636 23.1049C1.56776 22.9023 1.56653 22.6994 1.57721 22.4972C1.59711 22.122 1.76734 21.9454 2.12127 21.9256C2.21788 21.9202 2.31547 21.9169 2.41168 21.9254C2.5555 21.9379 2.63092 21.8991 2.62358 21.7251C2.60923 21.3877 2.61094 21.0495 2.60605 20.7117C2.61102 20.6096 2.62024 20.5076 2.62032 20.4056C2.62154 19.4832 2.6173 18.5607 2.62268 17.6383C2.62537 17.1796 2.79887 17.0031 3.23587 16.9861C3.31186 16.9831 3.38874 16.9784 3.46391 16.9869C3.61597 17.0042 3.67288 16.9491 3.6697 16.7797C3.65714 16.1083 3.65763 15.4367 3.65315 14.7653C3.65233 14.3322 3.65152 13.8991 3.65078 13.4659C3.70688 12.6756 3.74837 12.6211 4.50172 12.6019C4.72071 12.5963 4.71223 12.4889 4.71174 12.3295C4.70889 11.3728 4.70889 10.416 4.71288 9.4593C4.71508 8.94625 4.89233 8.76631 5.38576 8.76085C5.59228 8.75862 5.8005 8.74299 6.00482 8.76503C6.2393 8.79041 6.28953 8.69907 6.28749 8.4642C6.28007 7.59931 6.29605 6.73408 6.30322 5.86902C6.35899 5.67891 6.49458 5.56921 6.65544 5.4848C7.36108 5.44738 7.36109 5.44738 7.312 4.78463C7.33703 4.35171 7.34046 3.91888 7.30907 3.48614C7.34535 3.20838 7.33141 2.88918 7.65672 2.78725C7.8347 2.73146 7.85516 2.63449 7.8528 2.47062C7.84473 1.91484 7.85964 1.35855 7.84595 0.803034C7.83796 0.47965 7.89927 0.202318 8.15707 0C8.26575 0 8.37451 0 8.48319 0C8.76284 0.153789 8.8469 0.402585 8.83353 0.721355C8.82081 1.02603 8.84176 1.33241 8.84788 1.63802C8.84176 1.8981 8.84861 2.15954 8.82587 2.41799C8.80434 2.66183 8.86647 2.73813 9.11946 2.7506C9.43743 2.76624 9.4296 2.60877 9.42569 2.36869C9.41599 1.76892 9.66694 1.55848 10.1776 1.71295C10.4103 1.90869 10.402 2.18192 10.4044 2.45669C10.4051 2.54777 10.3401 2.68712 10.4643 2.7248C10.5953 2.76444 10.6011 2.61245 10.6416 2.5294C10.7789 2.24822 10.9741 2.0166 11.2373 1.87247C11.4123 1.77652 11.5298 1.68664 11.5561 1.45912C11.5804 1.24817 11.752 1.13624 11.9471 1.10711C12.147 1.07729 12.3757 1.15931 12.3998 1.34924C12.4485 1.73491 12.7444 1.82641 12.9671 2.01788C13.091 2.12442 13.1852 2.26822 13.2978 2.39005C13.3945 2.49454 13.3668 2.77341 13.5535 2.70822C13.6897 2.66064 13.6028 2.42389 13.6063 2.2736C13.6136 1.96995 13.7009 1.72483 14.0093 1.66237C14.2995 1.60351 14.4797 1.77062 14.5761 2.04898C14.5808 2.18363 14.6023 2.3205 14.5866 2.45251C14.5573 2.69806 14.6591 2.73821 14.873 2.74659C15.1302 2.75667 15.2149 2.67559 15.1854 2.41056C15.1594 2.17765 15.1659 1.94073 15.158 1.70569C15.1659 1.40461 15.1914 1.10258 15.1768 0.802606C15.1615 0.484007 15.2268 0.212827 15.4628 0ZM2.56447 24.0843C2.5674 24.1303 2.59105 24.1251 2.61917 24.1087C6.04135 24.1111 9.46352 24.1153 12.8856 24.1156C15.7211 24.1157 18.5566 24.1111 21.392 24.1087C21.4202 24.1251 21.4437 24.1302 21.4466 24.0843C21.4427 23.7116 21.5385 23.3335 21.3918 22.9684C21.3163 22.9627 21.2408 22.9518 21.1654 22.9518C15.0588 22.951 8.95232 22.951 2.84575 22.9518C2.77025 22.9518 2.69475 22.9627 2.61934 22.9684C2.47258 23.3335 2.56846 23.7116 2.56447 24.0843ZM19.9645 20.7742C19.8463 20.7689 19.7281 20.7589 19.6099 20.7586C18.7547 20.7567 18.7617 20.7572 18.7706 21.658C18.7729 21.8871 18.8321 21.9754 19.0489 21.9052C19.2635 21.9121 19.4781 21.924 19.6927 21.9248C20.4121 21.9273 20.4121 21.9258 20.412 21.1761C20.412 20.7315 20.412 20.7315 19.9645 20.7742ZM8.54891 27.8949C8.13546 27.8945 7.72202 27.8939 7.30866 27.8935C5.76512 27.8939 4.22174 27.8945 2.67829 27.8949C2.55966 27.8899 2.44103 27.8808 2.32249 27.8806C1.50212 27.8791 1.51191 27.8799 1.50302 28.7437C1.50033 29.0034 1.5658 29.1026 1.81129 29.0329C3.33746 29.0322 4.86364 29.0315 6.38981 29.0309C6.82641 29.0309 7.26308 29.0309 7.69968 29.0309C8.18675 29.0353 8.67446 29.0266 9.16071 29.05C9.39259 29.0613 9.42169 28.9606 9.42308 28.7545C9.42903 27.8351 9.43433 27.8351 8.54891 27.8949ZM13.5624 16.5457C13.5305 16.9814 13.5305 16.9816 13.9281 16.9821C14.1012 16.9823 14.2745 16.9762 14.4472 16.9837C14.5959 16.9901 14.6654 16.9362 14.66 16.7703C14.6472 16.3743 14.6438 15.9782 14.6366 15.582C14.6745 15.1254 14.6777 14.6688 14.6348 14.2122C14.6408 14.1104 14.641 14.0076 14.6541 13.9067C14.6837 13.6773 14.5854 13.6179 14.3763 13.619C12.7896 13.6273 11.203 13.6281 9.61623 13.6217C9.41427 13.6208 9.35476 13.6921 9.35647 13.8966C9.36275 14.6367 9.35394 15.377 9.35296 16.1173C9.35174 17.0143 9.35255 17.0066 10.2143 16.9876C10.4189 16.9831 10.4729 16.9144 10.469 16.7105C10.458 16.1528 10.4645 15.5945 10.4654 15.0365C10.4667 14.3862 10.6093 14.2401 11.2413 14.2392C11.6869 14.2386 12.1324 14.2392 12.5781 14.2392C13.4468 14.2392 13.4845 14.275 13.5612 15.1765C13.5218 15.633 13.5189 16.0893 13.5624 16.5457ZM8.48107 26.8395C8.73863 26.8448 8.99643 26.8458 9.25382 26.857C9.38003 26.8625 9.44363 26.807 9.42161 26.6809C9.34 26.2144 9.58451 25.8638 9.79192 25.4987C9.87712 25.403 9.95849 25.3052 9.99273 25.1426C9.48072 25.1426 8.99537 25.1475 8.5101 25.1397C8.35551 25.1373 8.30122 25.1898 8.30456 25.3543C8.31328 25.7857 8.30872 26.2173 8.30676 26.6487C8.30611 26.7754 8.3132 26.8859 8.48107 26.8395ZM9.39658 8.74658C10.0174 8.76204 9.9589 8.88021 9.92531 8.20225C9.95221 7.76951 9.95523 7.33676 9.92278 6.90418C9.99844 6.61224 9.93998 6.47725 9.60408 6.49143C8.93243 6.5198 8.25874 6.50972 7.58627 6.4946C7.34592 6.48921 7.23251 6.53364 7.2542 6.82225C7.28061 7.17255 7.26048 7.52669 7.26048 7.87921C7.26048 8.81527 7.26048 8.81527 8.15683 8.74461C8.57011 8.74538 8.98338 8.74598 9.39658 8.74658ZM8.35894 15.9946C8.38845 15.6299 8.39163 15.2654 8.35625 14.9009C8.36253 14.5596 8.35796 14.2178 8.37875 13.8775C8.39253 13.6521 8.29624 13.618 8.11051 13.6194C7.04523 13.6267 5.97987 13.6284 4.91467 13.6184C4.70228 13.6164 4.63567 13.6777 4.63983 13.9056C4.65353 14.6458 4.64497 15.3864 4.64497 16.1268C4.64497 17.0108 4.64489 17.0041 5.50267 16.9929C5.69704 16.9904 5.77042 16.9452 5.76308 16.7276C5.74784 16.2726 5.74776 15.8162 5.76357 15.361C5.7758 15.0068 5.97669 14.8023 6.26172 14.8074C6.55311 14.8127 6.72319 15.0142 6.73501 15.3795C6.74455 15.675 6.74626 15.9708 6.7514 16.2665C6.73868 17.0966 6.57529 17.0083 7.4374 16.9668C8.61837 16.9757 8.34581 17.2073 8.36538 16.0276C8.36571 16.0166 8.36122 16.0056 8.35894 15.9946ZM3.91511 26.8417C4.73677 26.8897 4.73686 26.8897 4.71003 26.0429C4.7093 26.0204 4.70294 25.9981 4.69919 25.9756C4.704 25.9197 4.71248 25.8636 4.71305 25.8077C4.72136 25.1059 4.72104 25.1059 4.04743 25.1561C3.79778 25.1517 3.54789 25.1544 3.29882 25.1401C3.13592 25.1306 3.06156 25.1745 3.07542 25.3641C3.09368 25.6132 3.08676 25.8642 3.09067 26.1144C3.04346 26.8583 3.04346 26.8586 3.72506 26.8556C3.78841 26.8552 3.85176 26.8465 3.91511 26.8417ZM12.4983 11.418C12.4963 11.5203 12.4927 11.6226 12.4924 11.725C12.4897 12.6793 12.4897 12.6765 13.4102 12.5989C13.5407 12.5879 13.6101 12.5587 13.6072 12.4052C13.5952 11.7579 13.6423 11.1098 13.5893 10.4628C13.6701 9.78354 13.6701 9.78294 13.0547 9.78611C12.9695 9.78645 12.8844 9.79576 12.7993 9.80097C12.072 9.79619 11.3447 9.79602 10.6175 9.78329C10.4427 9.78021 10.3933 9.84736 10.3965 10.0213C10.41 10.783 10.4142 11.5449 10.4219 12.3068C10.3485 12.5254 10.4139 12.6198 10.6423 12.6061C10.8668 12.5927 11.093 12.5968 11.318 12.6053C11.4706 12.6112 11.5283 12.5516 11.5236 12.3903C11.5139 12.0645 11.5174 11.7384 11.5156 11.4124C11.5638 11.2032 11.6795 11.0546 11.873 10.9761C12.2007 10.9381 12.4099 11.0842 12.4983 11.418ZM17.4844 12.582C18.5119 12.5892 18.3089 12.785 18.307 11.7592C18.3062 11.302 18.3054 10.8448 18.3047 10.3875C18.3097 10.3199 18.3088 10.2512 18.3205 10.1849C18.3796 9.85335 18.2516 9.75595 17.9373 9.7791C17.528 9.80918 17.1151 9.78824 16.7039 9.78107C16.4727 9.77705 16.3105 9.64855 16.2518 9.41684C16.1982 9.20538 16.2302 8.94368 16.4318 8.88832C16.8354 8.77751 16.7482 8.47788 16.7488 8.20046C16.7495 7.88331 16.7405 7.56608 16.7358 7.24885C16.7944 6.49391 16.7944 6.49365 16.0779 6.49946C16.0251 6.4998 15.9723 6.50784 15.9194 6.51228C15.3689 6.50844 14.8181 6.50972 14.2677 6.49733C14.1078 6.49374 14.0634 6.55508 14.0664 6.71349C14.0777 7.3013 14.0795 7.88946 14.0849 8.47745C14.0186 8.70121 14.0987 8.78425 14.3174 8.76401C14.566 8.74085 14.8088 8.76392 15.0067 8.95385C15.1627 9.35388 15.1035 9.63497 14.7901 9.74356C14.611 9.80559 14.5861 9.89068 14.588 10.0547C14.5946 10.6115 14.5905 11.1682 14.5905 11.7251C14.5905 12.6292 14.5903 12.6209 15.4612 12.6033C15.6721 12.5989 15.7148 12.5194 15.7076 12.3228C15.6965 12.028 15.7005 11.7318 15.7152 11.4371C15.7301 11.1382 15.9146 10.9779 16.1808 10.9705C16.4322 10.9636 16.6144 11.1091 16.6557 11.3878C16.6805 11.555 16.6848 11.7256 16.6983 11.8946C16.6433 12.6079 16.6433 12.6082 17.3234 12.5986C17.3771 12.598 17.4307 12.5878 17.4844 12.582ZM5.74433 18.7296C5.79667 17.9966 5.79667 17.9962 5.11915 18.0095C5.06689 18.0106 5.01487 18.0243 4.96278 18.0323C4.5751 18.026 4.18726 18.0248 3.79982 18.0113C3.64271 18.006 3.59322 18.0692 3.59795 18.2295C3.60977 18.6245 3.60847 19.02 3.61238 19.4154C3.55922 19.6371 3.60301 19.7576 3.85991 19.7375C4.18269 19.7123 4.50775 19.719 4.83192 19.712C5.07814 19.7183 5.32453 19.7209 5.57051 19.7322C5.70683 19.7386 5.76512 19.6859 5.75933 19.5382C5.74873 19.2691 5.74865 18.9992 5.74433 18.7296ZM11.4613 5.06197C11.3689 5.38398 11.4668 5.52367 11.8003 5.4824C11.9922 5.45865 12.1891 5.47241 12.3834 5.4801C12.5215 5.48557 12.5788 5.43208 12.5733 5.28436C12.5603 4.93449 12.5552 4.58436 12.547 4.23432C12.5544 3.93896 12.5747 3.64335 12.5662 3.34841C12.5541 2.9319 12.3402 2.68011 12.0188 2.6708C11.6878 2.66123 11.451 2.9249 11.4452 3.35491C11.4375 3.92376 11.4547 4.49286 11.4613 5.06197ZM16.9626 30.0834C16.238 30.0794 15.5133 30.0795 14.7889 30.0684C14.6267 30.0658 14.5837 30.1325 14.5906 30.2884C14.6035 30.5821 14.6045 30.8765 14.6105 31.1706C14.6078 31.2245 14.6379 31.2321 14.6792 31.2242C15.1357 31.2234 15.5922 31.2227 16.0487 31.222C16.4767 31.2225 16.9047 31.2231 17.3328 31.2237C18.8616 31.2231 20.3905 31.2225 21.9194 31.222C22.5962 31.2397 22.511 31.3499 22.4878 30.6221C22.4885 30.4629 22.4894 30.3035 22.4901 30.1444C22.5004 30.1016 22.4861 30.0811 22.4428 30.0869C22.315 30.0816 22.1871 30.0753 22.0592 30.0712C21.6715 30.0587 21.5338 29.9375 21.4494 29.532C21.501 29.259 21.6388 29.0827 21.9188 29.047C22.108 29.0227 22.3724 29.1457 22.4683 28.9775C22.5602 28.8166 22.497 28.5582 22.501 28.3425C22.5026 28.2629 22.4934 28.1822 22.5027 28.1037C22.5252 27.916 22.4386 27.8752 22.2768 27.8779C21.6147 27.8893 20.9525 27.89 20.2904 27.8946C19.8769 27.8941 19.4635 27.8936 19.0501 27.8931C17.8461 27.8889 16.6421 27.8836 15.4382 27.8809C14.539 27.879 14.544 27.8802 14.5881 28.8178C14.5966 28.9971 14.6503 29.049 14.8167 29.0474C15.923 29.0369 17.0292 29.0352 18.1356 29.0308C18.565 29.0313 18.9942 29.0318 19.4235 29.0325C19.8088 29.0449 20.2337 28.976 20.3541 29.5312C20.2223 29.9794 20.1097 30.0669 19.6596 30.0709C19.1524 30.0755 18.6453 30.0801 18.138 30.0847C17.7461 30.0845 17.3543 30.0839 16.9626 30.0834ZM6.91699 9.80072C6.57032 9.79602 6.22357 9.79576 5.87706 9.78466C5.73495 9.78013 5.68538 9.83694 5.68962 9.9833C5.70006 10.3463 5.70079 10.7097 5.70544 11.0729C5.70625 11.5068 5.70707 11.9405 5.7078 12.3743C5.66206 12.5363 5.71612 12.602 5.88024 12.5993C6.29214 12.5926 6.70444 12.5885 7.11608 12.6011C7.29374 12.6066 7.33589 12.5371 7.33116 12.3651C7.32268 12.0589 7.31714 11.7504 7.34356 11.4461C7.36973 11.1447 7.58733 10.9538 7.83812 10.9638C8.09625 10.9741 8.27741 11.1729 8.30268 11.4785C8.30929 11.5575 8.30692 11.6374 8.30717 11.7169C8.31076 12.6836 8.31043 12.6795 9.24086 12.6013C9.38378 12.5893 9.42357 12.5414 9.42275 12.3993C9.41819 11.5927 9.41843 10.7859 9.42234 9.97928C9.42308 9.83156 9.36927 9.78021 9.2305 9.78474C8.87332 9.79627 8.5158 9.79764 8.15845 9.80311C7.74469 9.80234 7.33084 9.80157 6.91699 9.80072ZM5.22106 30.0834C4.00357 30.0846 2.78607 30.0858 1.56857 30.087C1.52528 30.0811 1.51093 30.1015 1.52112 30.1443C1.51745 30.4384 1.5203 30.733 1.5075 31.0268C1.50025 31.1928 1.56213 31.2393 1.71378 31.2376C2.57817 31.2278 3.44264 31.2263 4.30711 31.222C4.73514 31.2225 5.16318 31.2231 5.59122 31.2237C6.83798 31.2239 8.08483 31.2241 9.33168 31.2243C9.37302 31.2322 9.40327 31.2246 9.40066 31.1706C9.40661 30.8763 9.40743 30.5817 9.42055 30.2878C9.42748 30.1307 9.3824 30.0666 9.22129 30.0685C8.30146 30.0792 7.38147 30.0803 6.46147 30.0846C6.04811 30.0842 5.63467 30.0839 5.22106 30.0834ZM19.3509 15.4462C19.3557 14.9116 19.3538 14.3767 19.3691 13.8425C19.3747 13.6467 19.2892 13.6207 19.1341 13.6217C18.0479 13.6274 16.9615 13.6308 15.8753 13.6241C15.689 13.6229 15.6352 13.6848 15.6365 13.8764C15.6433 14.8325 15.6431 15.7888 15.633 16.745C15.6309 16.9466 15.7013 16.994 15.8781 16.9888C16.258 16.9775 16.6388 16.9756 17.0186 16.9893C17.2163 16.9964 17.2853 16.9327 17.2783 16.7199C17.2641 16.2879 17.2704 15.8549 17.2753 15.4224C17.2798 15.0283 17.4419 14.8194 17.7389 14.8074C18.0455 14.7951 18.2388 15.019 18.252 15.4167C18.2628 15.7461 18.2624 16.0761 18.267 16.4058C18.2259 16.9882 18.2259 16.988 18.7815 16.9893C18.9115 16.9897 19.0419 16.9839 19.1713 16.9937C19.3313 17.0056 19.3755 16.9305 19.3709 16.7724C19.358 16.3305 19.3568 15.8882 19.3509 15.4462ZM10.4278 30.1244C10.4278 31.2631 10.439 32.4019 10.4208 33.5402C10.4156 33.8697 10.4752 33.997 10.825 33.9829C11.6061 33.9512 12.3897 33.957 13.1714 33.9807C13.4912 33.9904 13.5952 33.9136 13.5922 33.5546C13.5743 31.4483 13.567 29.3415 13.5941 27.2355C13.6016 26.6504 13.4648 26.1729 13.1565 25.6855C12.8963 25.274 12.6158 25.164 12.161 25.126C11.4515 25.0665 11.0065 25.3018 10.6853 25.9621C10.5333 26.2747 10.416 26.5558 10.4216 26.9137C10.4385 27.9838 10.4277 29.0542 10.4278 30.1244ZM12.0131 18.0128C11.0464 18.0128 10.0795 18.0199 9.11285 18.0076C8.88106 18.0047 8.80548 18.0831 8.82375 18.3186C8.84038 18.5335 8.82725 18.7509 8.82725 18.9671C8.82725 19.7304 8.82782 19.7114 9.55703 19.736C9.87671 19.7468 9.96371 19.6502 9.94854 19.3218C9.92735 18.8638 10.0924 18.6477 10.4551 18.6433C11.4977 18.6308 12.5406 18.6375 13.5833 18.6461C13.8643 18.6485 13.9991 18.8323 14.059 19.1128C14.1025 19.3162 13.9478 19.5992 14.1564 19.7082C14.3227 19.7951 14.5607 19.731 14.7668 19.7334C14.832 19.7341 14.8977 19.7274 14.9623 19.7337C15.133 19.7504 15.1905 19.6711 15.1865 19.4952C15.1777 19.1084 15.1692 18.7204 15.189 18.3345C15.2021 18.0794 15.1275 18.0031 14.8808 18.0069C13.9252 18.0214 12.9691 18.0128 12.0131 18.0128ZM12.0021 19.6774C11.72 19.6774 11.4378 19.6847 11.1561 19.6748C10.9796 19.6686 10.9006 19.7252 10.9036 19.9247C10.9123 20.5043 10.9096 21.0841 10.9049 21.6638C10.9034 21.8445 10.9587 21.9383 11.1467 21.9365C11.7216 21.9308 12.2965 21.9319 12.8714 21.9357C13.0369 21.9368 13.1064 21.8626 13.1055 21.6904C13.1023 21.0993 13.1008 20.5082 13.1068 19.9172C13.1086 19.7436 13.0511 19.6701 12.8807 19.6752C12.588 19.6839 12.2949 19.6776 12.0021 19.6774ZM10.9228 7.63357H10.92C10.92 7.91817 10.9298 8.20319 10.9166 8.4871C10.9076 8.68412 10.9511 8.7617 11.1628 8.77093C11.4393 8.78298 11.573 8.71642 11.523 8.40106C11.5074 8.30298 11.5253 8.19644 11.541 8.09605C11.585 7.81419 11.7718 7.67689 12.0206 7.68339C12.2536 7.68945 12.4348 7.82607 12.4689 8.09374C12.4889 8.25078 12.4939 8.4114 12.4901 8.56989C12.4833 8.85568 12.6853 8.74641 12.8134 8.7582C12.948 8.7705 13.0989 8.80399 13.0946 8.55802C13.0839 7.94355 13.0876 7.32873 13.0934 6.71409C13.0949 6.55491 13.048 6.49391 12.8888 6.4963C12.3023 6.50493 11.7157 6.50536 11.1293 6.49844C10.9748 6.49656 10.9157 6.5468 10.9203 6.71169C10.929 7.01876 10.9228 7.32617 10.9228 7.63357ZM19.3329 19.7338C19.6258 19.7338 19.9189 19.7274 20.2115 19.7363C20.3683 19.7412 20.4184 19.6797 20.4153 19.518C20.407 19.0861 20.4063 18.6538 20.4156 18.2221C20.4192 18.0562 20.3627 18.0049 20.2098 18.0065C19.624 18.0125 19.0382 18.0132 18.4525 18.0061C18.2953 18.0043 18.246 18.0633 18.2489 18.224C18.2567 18.6559 18.2565 19.088 18.249 19.5198C18.2463 19.6811 18.2966 19.7423 18.4542 19.7368C18.7469 19.7265 19.04 19.7338 19.3329 19.7338ZM9.32891 5.47497C9.68495 5.47497 9.97798 5.46677 10.2703 5.47839C10.4288 5.48454 10.4748 5.42628 10.4715 5.26463C10.4625 4.83308 10.4624 4.40118 10.4714 3.96963C10.4749 3.80243 10.4165 3.75715 10.2641 3.75988C9.79804 3.76843 9.33177 3.76296 8.86565 3.76296C8.30676 3.76296 8.30154 3.76296 8.30864 4.34984C8.31304 4.71107 8.16376 5.18884 8.36277 5.40252C8.57907 5.63491 9.03956 5.44191 9.32891 5.47497ZM14.6303 5.47506C14.912 5.47506 15.1938 5.46856 15.4752 5.47771C15.6303 5.48275 15.7142 5.45447 15.7084 5.25907C15.6959 4.82812 15.698 4.39623 15.7076 3.96519C15.7115 3.79081 15.6396 3.75886 15.4941 3.76048C14.9092 3.76723 14.3241 3.76997 13.7392 3.76134C13.5729 3.75894 13.5416 3.83191 13.5436 3.98339C13.5492 4.40341 13.5541 4.82385 13.5383 5.24327C13.5305 5.45233 13.6167 5.4848 13.7854 5.47813C14.0667 5.46694 14.3487 5.47506 14.6303 5.47506ZM21.4599 33.1285C21.4599 33.1172 21.4599 33.1057 21.4599 33.0944C21.4588 32.2649 21.4588 32.2649 20.6612 32.2631C19.8263 32.2613 19.8263 32.2613 19.8281 33.1251C19.8299 33.9714 19.8299 33.9714 20.6435 33.9728C21.4609 33.9742 21.4609 33.9742 21.4599 33.1285ZM5.69068 25.9544C5.69068 26.1644 5.70577 26.3251 5.68734 26.4815C5.65391 26.7665 5.72623 26.9103 6.03221 26.8596C6.19055 26.8334 6.35622 26.8549 6.51847 26.8549C7.32847 26.8549 7.33214 26.8549 7.32643 26.0219C7.32448 25.7411 7.44017 25.3798 7.28135 25.2012C7.11886 25.0181 6.77007 25.1528 6.5033 25.1453C6.24558 25.1381 5.90364 25.0562 5.75077 25.1934C5.56871 25.3566 5.72264 25.727 5.69068 25.9544ZM18.0519 32.263C17.2172 32.263 17.2172 32.263 17.2172 33.1245C17.2172 33.1359 17.2172 33.1473 17.2172 33.1586C17.2172 33.9729 17.2172 33.9729 17.9978 33.9729C18.8488 33.9729 18.8488 33.9729 18.8488 33.0954C18.8488 32.263 18.8488 32.263 18.0519 32.263ZM4.18334 33.1362C4.18326 32.2648 4.18326 32.2648 3.35833 32.2639C3.34749 32.2639 3.33657 32.2639 3.32572 32.2638C2.55061 32.2629 2.55061 32.2629 2.55191 33.0835C2.55338 33.9729 2.55338 33.9729 3.39144 33.9729C4.18342 33.973 4.18342 33.973 4.18334 33.1362ZM5.98574 32.263C5.16253 32.263 5.16253 32.263 5.16253 33.1018C5.16253 33.9729 5.16253 33.9729 5.98672 33.9729C6.79404 33.9729 6.79404 33.9729 6.79404 33.1177C6.79404 32.263 6.79404 32.263 5.98574 32.263ZM8.56472 33.9722C9.40596 33.9729 9.40596 33.9729 9.40408 33.0849C9.40229 32.2631 9.40229 32.2631 8.59628 32.263C7.77306 32.2629 7.77306 32.2629 7.77306 33.1354C7.77306 33.9716 7.77306 33.9716 8.56472 33.9722ZM15.3998 32.2639C14.6075 32.2639 14.6075 32.2639 14.6075 33.065C14.6075 33.9729 14.6075 33.9729 15.4617 33.9729C16.2382 33.9729 16.2382 33.9729 16.2382 33.1546C16.2382 32.264 16.2382 32.264 15.3998 32.2639ZM6.73509 18.8335C6.73509 19.7938 6.73485 19.7892 7.65011 19.7383C7.80486 19.7297 7.85875 19.6845 7.85533 19.5222C7.84709 19.1361 7.83576 18.7487 7.8585 18.3639C7.87481 18.0882 7.80584 17.9952 7.527 18.0014C6.73542 18.0191 6.73509 18.0054 6.73509 18.8335ZM11.4276 16.1997C11.4682 16.4102 11.3196 16.7326 11.4883 16.9357C11.6645 17.1478 11.9592 16.9174 12.2011 16.961C12.2431 16.9686 12.2878 16.9581 12.3307 16.9626C12.5049 16.9806 12.5892 16.9172 12.5842 16.7165C12.5742 16.3197 12.5755 15.9225 12.5844 15.5257C12.5892 15.3158 12.5022 15.2468 12.3115 15.2514C11.2274 15.2773 11.4569 15.0807 11.4276 16.1997ZM16.1619 18.8439C16.1653 19.7887 16.1651 19.7831 17.0609 19.7387C17.2353 19.7301 17.2834 19.6697 17.279 19.4972C17.269 19.1108 17.26 18.723 17.2789 18.3374C17.291 18.0882 17.2279 18.0069 16.9768 18.0066C16.1589 18.0061 16.1589 17.9942 16.1619 18.8439ZM16.9919 21.9249C17.1656 21.9249 17.3409 21.9096 17.5126 21.9287C17.745 21.9545 17.803 21.8607 17.8022 21.6241C17.7991 20.7571 17.8075 20.7571 16.9787 20.7571C16.1512 20.7571 16.1632 20.7572 16.1538 21.6179C16.1508 21.8884 16.239 21.953 16.4712 21.9285C16.6431 21.9104 16.8182 21.9249 16.9919 21.9249ZM7.00422 21.9249C7.87114 21.9233 7.87114 21.9233 7.85035 21.0159C7.85011 21.0045 7.8488 20.9929 7.85043 20.9819C7.87701 20.7995 7.79809 20.7486 7.63071 20.7537C7.26227 20.7649 6.89196 20.7771 6.52499 20.7504C6.25227 20.7306 6.20588 20.8429 6.20914 21.098C6.21998 21.9262 6.21101 21.9264 7.00422 21.9249ZM4.42492 21.9249C5.24658 21.9249 5.24659 21.9249 5.23672 21.051C5.23648 21.0283 5.23387 21.005 5.23705 20.9827C5.26314 20.8013 5.18691 20.7486 5.01789 20.7536C4.62687 20.765 4.23495 20.769 3.84426 20.7526C3.63317 20.7437 3.59754 20.8327 3.59551 21.0306C3.58637 21.925 3.58075 21.9249 4.42492 21.9249ZM8.8297 21.298C8.82823 21.926 8.82823 21.926 9.41786 21.926C9.4287 21.926 9.43955 21.9261 9.45031 21.926C10.0215 21.9154 9.93778 22.0145 9.94243 21.3989C9.94724 20.7551 9.94349 20.7551 9.33829 20.7564C8.83092 20.7576 8.83092 20.7576 8.8297 21.298ZM14.0707 21.3398C14.0708 21.9253 14.0708 21.9253 14.6033 21.926C15.1846 21.9267 15.1846 21.9267 15.1839 21.326C15.1831 20.76 15.1831 20.76 14.6328 20.76C14.0707 20.7597 14.0707 20.7598 14.0707 21.3398Z" fill="#0068DC"/>
<path fill-rule="evenodd" clip-rule="evenodd" d="M21.392 24.1089C18.5565 24.1113 15.721 24.1158 12.8856 24.1158C9.4634 24.1156 6.04123 24.1113 2.61914 24.1089C2.62395 24.0919 2.62395 24.0748 2.61914 24.0579C2.61914 23.6948 2.61914 23.3317 2.61922 22.9686C2.69472 22.9628 2.77022 22.952 2.84563 22.952C8.95221 22.9512 15.0587 22.9512 21.1653 22.952C21.2408 22.952 21.3163 22.9628 21.3918 22.9686C21.3918 23.3317 21.3918 23.6948 21.3918 24.0579C21.3871 24.0749 21.3872 24.0918 21.392 24.1089Z" fill="white"/>
<rect x="2" y="25" width="8" height="2" fill="#0068DC"/>
<path fill-rule="evenodd" clip-rule="evenodd" d="M18.2678 16.4057C18.2632 16.076 18.2636 15.7461 18.2528 15.4166C18.2396 15.0189 18.0462 14.795 17.7397 14.8073C17.4427 14.8193 17.2806 15.0282 17.2761 15.4223C17.2712 15.8548 17.2649 16.2878 17.2791 16.7199C17.2861 16.9326 17.2171 16.9963 17.0194 16.9892C16.6396 16.9755 16.2589 16.9774 15.8789 16.9887C15.7021 16.994 15.6317 16.9466 15.6338 16.7449C15.6439 15.7888 15.6441 14.8324 15.6373 13.8763C15.636 13.6847 15.6898 13.6228 15.8761 13.624C16.9623 13.6307 18.0486 13.6273 19.1349 13.6216C19.2899 13.6207 19.3755 13.6467 19.3699 13.8424C19.3546 14.3767 19.3565 14.9115 19.3517 15.4461C19.111 15.5441 18.9938 15.7905 18.8028 15.9478C18.6216 16.0969 18.5209 16.3493 18.2678 16.4057Z" fill="#38A6F8"/>
<path fill-rule="evenodd" clip-rule="evenodd" d="M16.7358 7.24869C16.7405 7.56593 16.7494 7.88316 16.7487 8.20031C16.7481 8.47772 16.8353 8.77735 16.4317 8.88817C16.2301 8.94353 16.1981 9.20523 16.2517 9.41669C16.3104 9.6484 16.4727 9.7769 16.7038 9.78091C17.115 9.78801 17.5281 9.80894 17.9373 9.77895C18.2516 9.75579 18.3796 9.85328 18.3205 10.1848C18.3086 10.2511 18.3096 10.3199 18.3047 10.3874C17.8201 10.74 17.4679 11.2389 17.0342 11.6477C16.9324 11.7437 16.8629 11.8913 16.6983 11.8945C16.6847 11.7254 16.6804 11.555 16.6556 11.3877C16.6144 11.109 16.4321 10.9635 16.1808 10.9705C15.9145 10.9778 15.7301 11.1381 15.7152 11.437C15.7004 11.7317 15.6965 12.0279 15.7075 12.3227C15.7147 12.5192 15.672 12.5988 15.4611 12.6032C14.5903 12.6209 14.5904 12.6291 14.5904 11.7251C14.5904 11.1682 14.5945 10.6114 14.588 10.0547C14.586 9.8907 14.611 9.80552 14.79 9.74349C15.1034 9.6349 15.1626 9.35381 15.0067 8.95378C15.5143 8.41057 16.0223 7.86786 16.529 7.32379C16.5876 7.26091 16.6568 7.2434 16.7358 7.24869Z" fill="#38A6F8"/>
<path fill-rule="evenodd" clip-rule="evenodd" d="M6.75139 16.2666C6.74626 15.9709 6.74455 15.6751 6.73501 15.3796C6.7231 15.0143 6.55311 14.8128 6.26172 14.8075C5.97661 14.8024 5.7758 15.0069 5.76357 15.3611C5.74783 15.8163 5.74783 16.2727 5.76308 16.7277C5.77042 16.9453 5.69696 16.9905 5.50267 16.993C4.64489 17.0042 4.64497 17.0109 4.64497 16.1269C4.64497 15.3865 4.65353 14.6459 4.63983 13.9057C4.63567 13.6777 4.70228 13.6165 4.91467 13.6185C5.97987 13.6285 7.04523 13.6269 8.11051 13.6195C8.29624 13.6181 8.39253 13.6522 8.37875 13.8776C8.35796 14.2178 8.36244 14.5597 8.35625 14.901C8.2196 14.9004 8.1516 15.0122 8.06958 15.0974C7.74949 15.4297 7.42924 15.7618 7.11461 16.0998C7.01172 16.2102 6.90761 16.2948 6.75139 16.2666Z" fill="#38A6F8"/>
<path fill-rule="evenodd" clip-rule="evenodd" d="M13.5608 15.1766C13.4841 14.2752 13.4465 14.2393 12.5777 14.2393C12.1322 14.2393 11.6865 14.2388 11.241 14.2394C10.6089 14.2401 10.4663 14.3863 10.4651 15.0366C10.4641 15.5947 10.4577 16.1528 10.4686 16.7107C10.4726 16.9145 10.4186 16.9832 10.2139 16.9877C9.35214 17.0068 9.35133 17.0144 9.35263 16.1174C9.35361 15.3771 9.36242 14.6368 9.35614 13.8967C9.35443 13.6922 9.41386 13.6209 9.61589 13.6218C11.2026 13.6283 12.7892 13.6274 14.376 13.6192C14.585 13.618 14.6834 13.6774 14.6538 13.9068C14.6407 14.0078 14.6405 14.1105 14.6344 14.2124C14.4155 14.3391 14.283 14.5651 14.0949 14.7266C13.9182 14.8782 13.8157 15.1272 13.5608 15.1766Z" fill="white"/>
<path fill-rule="evenodd" clip-rule="evenodd" d="M12.0133 18.0129C12.9692 18.0129 13.9254 18.0215 14.881 18.007C15.1277 18.0032 15.2023 18.0795 15.1892 18.3345C15.1693 18.7206 15.1778 19.1085 15.1866 19.4953C15.1906 19.6711 15.1332 19.7505 14.9624 19.7338C14.8979 19.7274 14.8321 19.7342 14.767 19.7334C14.5608 19.7311 14.3227 19.7951 14.1566 19.7083C13.9479 19.5993 14.1026 19.3162 14.0592 19.1129C13.9992 18.8324 13.8645 18.6485 13.5834 18.6462C12.5407 18.6375 11.4979 18.6308 10.4552 18.6434C10.0926 18.6478 9.9275 18.8638 9.9487 19.3219C9.96394 19.6503 9.87687 19.7468 9.55719 19.7361C8.82798 19.7115 8.82741 19.7305 8.82741 18.9672C8.82741 18.7509 8.84053 18.5335 8.8239 18.3186C8.80564 18.0832 8.88122 18.0047 9.11301 18.0077C10.0797 18.02 11.0465 18.0129 12.0133 18.0129Z" fill="white"/>
<path fill-rule="evenodd" clip-rule="evenodd" d="M22.4903 30.1444C22.4896 30.3036 22.4888 30.4629 22.488 30.6222C22.2381 30.7592 22.0453 30.9557 21.9196 31.2221C20.3907 31.2226 18.8619 31.2232 17.333 31.2237C17.4163 30.8779 17.7261 30.7276 17.9203 30.4776C18.0133 30.3578 18.1616 30.2751 18.1382 30.0852C18.6454 30.0806 19.1526 30.076 19.6598 30.0714C20.1099 30.0673 20.2225 29.9799 20.3544 29.5317C20.7195 29.5319 21.0846 29.5322 21.4497 29.5323C21.5341 29.9377 21.6718 30.0591 22.0595 30.0715C22.1874 30.0756 22.3153 30.082 22.4431 30.0873C22.4588 30.1061 22.4745 30.1252 22.4903 30.1444Z" fill="#006ada"/>
<path fill-rule="evenodd" clip-rule="evenodd" d="M8.15864 9.80331C8.51599 9.79793 8.8735 9.79647 9.23068 9.78494C9.36945 9.78041 9.42318 9.83176 9.42252 9.97949C9.41869 10.7861 9.41845 11.5929 9.42293 12.3995C9.42375 12.5416 9.38388 12.5895 9.24104 12.6015C8.31061 12.6797 8.31102 12.6838 8.30735 11.7171C8.3071 11.6376 8.30938 11.5577 8.30286 11.4787C8.27751 11.1731 8.09643 10.9743 7.8383 10.964C7.58751 10.954 7.36983 11.1449 7.34374 11.4463C7.31732 11.7506 7.32286 12.0591 7.33134 12.3653C7.33607 12.5373 7.29392 12.6068 7.11627 12.6013C6.70462 12.5887 6.29231 12.5928 5.88042 12.5995C5.7163 12.6022 5.66225 12.5365 5.70798 12.3745C5.84659 12.3908 5.922 12.2883 6.00541 12.2009C6.66858 11.5058 7.33183 10.8107 7.99508 10.1159C8.07873 10.0283 8.17502 9.94822 8.15864 9.80331Z" fill="#38A6F8"/>
<path fill-rule="evenodd" clip-rule="evenodd" d="M6.38996 29.0309C4.86379 29.0316 3.33762 29.0323 1.81152 29.0328C1.82277 28.857 1.95469 28.7656 2.05049 28.6462C2.25481 28.3911 2.55769 28.2263 2.6786 27.895C4.22206 27.8946 5.76552 27.894 7.30898 27.8936C7.3058 28.0499 7.17739 28.1157 7.09626 28.2156C6.86904 28.495 6.55792 28.6949 6.38996 29.0309Z" fill="#38A6F8"/>
<path fill-rule="evenodd" clip-rule="evenodd" d="M18.1357 29.0311C17.0294 29.0356 15.9231 29.0372 14.8168 29.0478C14.6504 29.0494 14.5967 28.9973 14.5882 28.8181C14.5441 27.8806 14.5391 27.8793 15.4383 27.8813C16.6422 27.8838 17.8462 27.8892 19.0502 27.8935C19.0435 28.0622 18.9013 28.13 18.8148 28.239C18.5982 28.5121 18.2869 28.6963 18.1357 29.0311Z" fill="#38A6F8"/>
<path fill-rule="evenodd" clip-rule="evenodd" d="M8.15721 8.74491C7.26086 8.81557 7.26086 8.81557 7.26086 7.87951C7.26086 7.52699 7.281 7.17285 7.25459 6.82255C7.23282 6.53394 7.34631 6.48943 7.58666 6.49489C8.25913 6.51002 8.93281 6.52001 9.60446 6.49173C9.94037 6.47755 9.99883 6.61254 9.92317 6.90449C9.8268 6.90107 9.76443 6.9631 9.70238 7.0282C9.22168 7.5328 8.74048 8.03697 8.25896 8.54089C8.20409 8.59813 8.15729 8.65828 8.15721 8.74491Z" fill="#38A6F8"/>
<path fill-rule="evenodd" clip-rule="evenodd" d="M10.9233 7.63343C10.9233 7.32602 10.9295 7.01861 10.9208 6.71155C10.9161 6.54674 10.9753 6.49641 11.1298 6.49829C11.7162 6.50522 12.3028 6.50479 12.8893 6.49616C13.0485 6.49385 13.0954 6.55485 13.0939 6.71394C13.0881 7.3285 13.0844 7.94332 13.0951 8.55787C13.0994 8.80385 12.9485 8.77035 12.8139 8.75805C12.6858 8.74635 12.4839 8.85554 12.4906 8.56975C12.4943 8.41126 12.4894 8.25063 12.4694 8.0936C12.4353 7.82592 12.2541 7.68931 12.021 7.68324C11.7722 7.67675 11.5855 7.81404 11.5415 8.0959C11.5258 8.19629 11.5079 8.30284 11.5235 8.40092C11.5735 8.71627 11.4398 8.78283 11.1633 8.77079C10.9516 8.76156 10.9081 8.68389 10.9171 8.48696C10.9302 8.20305 10.9205 7.91802 10.9205 7.63343C10.9214 7.63343 10.9223 7.63343 10.9233 7.63343Z" fill="white"/>
<path fill-rule="evenodd" clip-rule="evenodd" d="M9.33226 31.2242C8.08541 31.224 6.83856 31.2238 5.5918 31.2235C5.60696 31.0498 5.73488 30.9554 5.83166 30.8358C6.03752 30.5813 6.33837 30.4142 6.46214 30.0845C7.38213 30.0801 8.30204 30.0791 9.22195 30.0684C9.38306 30.0666 9.42822 30.1307 9.42121 30.2877C9.40809 30.5816 9.40727 30.8762 9.40132 31.1706C9.37824 31.1884 9.35525 31.2064 9.33226 31.2242Z" fill="#38A6F8"/>
<path fill-rule="evenodd" clip-rule="evenodd" d="M19.3331 19.7339C19.0402 19.7339 18.7471 19.7267 18.4545 19.7368C18.2968 19.7423 18.2465 19.6812 18.2493 19.5199C18.2568 19.0881 18.257 18.6559 18.2491 18.224C18.2462 18.0634 18.2955 18.0043 18.4528 18.0061C19.0385 18.0132 19.6244 18.0126 20.2101 18.0065C20.363 18.0049 20.4195 18.0562 20.4159 18.2221C20.4065 18.6539 20.4073 19.0861 20.4156 19.518C20.4187 19.6798 20.3685 19.7412 20.2118 19.7364C19.9191 19.7274 19.626 19.7339 19.3331 19.7339Z" fill="#38A6F8"/>
<path fill-rule="evenodd" clip-rule="evenodd" d="M4.30701 31.222C3.44254 31.2264 2.57807 31.2278 1.71368 31.2377C1.56203 31.2395 1.50015 31.1929 1.5074 31.0268C1.52012 30.7331 1.51727 30.4385 1.52102 30.1443C1.53675 30.1252 1.55265 30.1062 1.56847 30.0871C2.78597 30.0859 4.00347 30.0847 5.22097 30.0835C5.21249 30.2516 5.07005 30.319 4.98379 30.4283C4.76806 30.7021 4.45352 30.8834 4.30701 31.222Z" fill="#006ada"/>
<path fill-rule="evenodd" clip-rule="evenodd" d="M21.4488 29.5322C21.0837 29.532 20.7186 29.5318 20.3535 29.5316C20.2331 28.9764 19.8082 29.0453 19.4229 29.0327C19.434 28.8569 19.566 28.7656 19.6617 28.6461C19.8661 28.3909 20.1689 28.2263 20.2898 27.895C20.952 27.8903 21.6142 27.8896 22.2763 27.8783C22.438 27.8756 22.5247 27.9163 22.5022 28.1041C22.4928 28.1825 22.502 28.2633 22.5005 28.3429C22.4965 28.5585 22.5597 28.8169 22.4678 28.9779C22.3717 29.1461 22.1074 29.023 21.9183 29.0474C21.6382 29.0829 21.5004 29.2592 21.4488 29.5322Z" fill="#006ada"/>
<path fill-rule="evenodd" clip-rule="evenodd" d="M9.32883 5.47497C9.03956 5.44191 8.579 5.63491 8.36253 5.40252C8.16351 5.18884 8.31288 4.71107 8.30839 4.34983C8.3013 3.76296 8.30652 3.76296 8.86541 3.76296C9.33161 3.76296 9.7978 3.76842 10.2638 3.75988C10.4163 3.75715 10.4747 3.80251 10.4712 3.96963C10.4622 4.40109 10.4623 4.83307 10.4712 5.26462C10.4746 5.42627 10.4285 5.48454 10.27 5.47839C9.9779 5.46677 9.68488 5.47497 9.32883 5.47497Z" fill="#38A6F8"/>
<path fill-rule="evenodd" clip-rule="evenodd" d="M14.6304 5.47522C14.3488 5.47522 14.0668 5.46711 13.7856 5.47821C13.6169 5.48488 13.5307 5.45241 13.5386 5.24334C13.5544 4.82393 13.5495 4.4034 13.5439 3.98347C13.5418 3.83207 13.5731 3.75911 13.7395 3.76141C14.3244 3.77004 14.9094 3.76731 15.4943 3.76056C15.6398 3.75885 15.7118 3.79081 15.7079 3.96527C15.6982 4.39631 15.696 4.8282 15.7087 5.25915C15.7144 5.45455 15.6306 5.48283 15.4754 5.47779C15.194 5.46873 14.9121 5.47522 14.6304 5.47522Z" fill="#38A6F8"/>
<path fill-rule="evenodd" clip-rule="evenodd" d="M11.8731 10.9762C11.6796 11.0547 11.564 11.2033 11.5157 11.4125C11.3351 11.4017 11.2654 11.5678 11.15 11.6621C10.8992 11.867 10.758 12.2079 10.4221 12.3068C10.4144 11.545 10.4102 10.7831 10.3966 10.0213C10.3935 9.84738 10.4429 9.78023 10.6176 9.7833C11.3448 9.79603 12.0722 9.7962 12.7994 9.80099C12.7974 9.96716 12.6751 10.0527 12.5844 10.162C12.3538 10.4396 12.0433 10.6408 11.8731 10.9762Z" fill="white"/>
<path fill-rule="evenodd" clip-rule="evenodd" d="M16.736 7.24899C16.6571 7.24361 16.5879 7.2612 16.5293 7.32409C16.0225 7.86807 15.5145 8.41086 15.0069 8.95408C14.809 8.76406 14.5662 8.74108 14.3176 8.76424C14.099 8.78449 14.0188 8.70144 14.0851 8.47768C14.1664 8.47947 14.2276 8.43872 14.2829 8.3807C14.7916 7.84688 15.3003 7.31315 15.8103 6.78087C15.8827 6.70543 15.9299 6.62298 15.9196 6.51251C15.9724 6.50806 16.0252 6.50003 16.0781 6.49969C16.7946 6.4938 16.7946 6.49406 16.736 7.24899Z" fill="#38A6F8"/>
<path fill-rule="evenodd" clip-rule="evenodd" d="M8.15818 9.80317C8.17456 9.94816 8.07827 10.0281 7.99454 10.1159C7.33121 10.8107 6.66804 11.5058 6.00487 12.2008C5.92146 12.2882 5.84604 12.3908 5.70744 12.3744C5.70663 11.9407 5.70581 11.5069 5.70508 11.073C5.79688 11.08 5.86993 11.0454 5.93524 10.9761C6.23038 10.6631 6.52723 10.3519 6.8258 10.0427C6.89225 9.97397 6.92299 9.89647 6.91663 9.80078C7.33048 9.80155 7.74433 9.80232 8.15818 9.80317Z" fill="#38A6F8"/>
<path fill-rule="evenodd" clip-rule="evenodd" d="M16.0486 31.222C15.5921 31.2228 15.1356 31.2236 14.6792 31.2242C14.6562 31.2064 14.6333 31.1885 14.6104 31.1707C14.6045 30.8765 14.6035 30.5822 14.5905 30.2884C14.5837 30.1325 14.6266 30.0659 14.7888 30.0684C15.5133 30.0795 16.2379 30.0795 16.9625 30.0835C16.9539 30.2516 16.8113 30.3188 16.7253 30.4284C16.5103 30.7026 16.1951 30.8833 16.0486 31.222Z" fill="#006ada"/>
<path fill-rule="evenodd" clip-rule="evenodd" d="M11.4614 5.06199C11.4549 4.49297 11.4376 3.92378 11.4453 3.35501C11.4511 2.925 11.688 2.66126 12.0189 2.67091C12.3403 2.68022 12.5541 2.93192 12.5663 3.34852C12.5748 3.64337 12.5545 3.93907 12.5471 4.23443C12.3918 4.25647 12.2986 4.37652 12.1788 4.46221C11.9237 4.64462 11.8425 5.05507 11.4614 5.06199Z" fill="white"/>
<path fill-rule="evenodd" clip-rule="evenodd" d="M6.73535 18.8336C6.73535 18.0056 6.7356 18.0193 7.52718 18.0015C7.80601 17.9953 7.87499 18.0884 7.85868 18.364C7.83594 18.7488 7.84735 19.1362 7.8555 19.5222C7.85893 19.6846 7.80504 19.7298 7.65029 19.7384C6.73511 19.7892 6.73535 19.7938 6.73535 18.8336Z" fill="#38A6F8"/>
<path fill-rule="evenodd" clip-rule="evenodd" d="M4.83223 19.7121C4.50806 19.7191 4.18308 19.7125 3.86022 19.7377C3.60331 19.7578 3.55953 19.6373 3.61269 19.4155C3.7632 19.4304 3.84538 19.3185 3.93628 19.2234C4.21822 18.9282 4.50064 18.6337 4.78127 18.3371C4.86313 18.2505 4.96789 18.1766 4.963 18.0323C5.0151 18.0245 5.0672 18.0106 5.11938 18.0095C5.79698 17.9963 5.79698 17.9967 5.74456 18.7297C5.3612 18.9762 5.02921 19.2753 4.83223 19.7121Z" fill="#38A6F8"/>
<path fill-rule="evenodd" clip-rule="evenodd" d="M15.9195 6.51216C15.9299 6.62255 15.8826 6.705 15.8102 6.78052C15.3002 7.3128 14.7914 7.84654 14.2828 8.38036C14.2276 8.43837 14.1663 8.47921 14.0851 8.47733C14.0797 7.88934 14.0779 7.30118 14.0665 6.71337C14.0635 6.55497 14.1079 6.49371 14.2678 6.49721C14.8182 6.5096 15.3689 6.50832 15.9195 6.51216Z" fill="#38A6F8"/>
<path fill-rule="evenodd" clip-rule="evenodd" d="M16.1624 18.844C16.1594 17.9944 16.1594 18.0063 16.9773 18.0069C17.2285 18.0071 17.2916 18.0883 17.2794 18.3376C17.2605 18.7233 17.2695 19.111 17.2795 19.4975C17.284 19.67 17.2358 19.7304 17.0614 19.739C16.1655 19.7832 16.1658 19.7889 16.1624 18.844Z" fill="#38A6F8"/>
<path fill-rule="evenodd" clip-rule="evenodd" d="M16.9916 21.9252C16.8179 21.9252 16.6428 21.9107 16.4709 21.9288C16.2388 21.9533 16.1505 21.8887 16.1534 21.6181C16.1628 20.7574 16.1509 20.7573 16.9783 20.7573C17.8072 20.7573 17.7988 20.7573 17.8018 21.6244C17.8026 21.8609 17.7446 21.9547 17.5123 21.9289C17.3406 21.9099 17.1653 21.9252 16.9916 21.9252Z" fill="#38A6F8"/>
<path fill-rule="evenodd" clip-rule="evenodd" d="M7.00415 21.9248C6.21094 21.9262 6.21991 21.9261 6.20915 21.0978C6.2058 20.8428 6.25219 20.7305 6.525 20.7503C6.89197 20.7769 7.26228 20.7647 7.63071 20.7535C7.7981 20.7485 7.87702 20.7994 7.85044 20.9817C7.84881 20.9927 7.85011 21.0045 7.85036 21.0157C7.87107 21.9233 7.87107 21.9233 7.00415 21.9248Z" fill="#38A6F8"/>
<path fill-rule="evenodd" clip-rule="evenodd" d="M4.42493 21.9249C3.58076 21.9249 3.58647 21.9249 3.59552 21.0305C3.59756 20.8325 3.6331 20.7437 3.84427 20.7526C4.23496 20.7689 4.62688 20.7649 5.0179 20.7535C5.18692 20.7485 5.26307 20.8013 5.23706 20.9826C5.23388 21.0049 5.23649 21.0282 5.23673 21.0509C5.2466 21.9249 5.2466 21.9249 4.42493 21.9249Z" fill="#38A6F8"/>
<path fill-rule="evenodd" clip-rule="evenodd" d="M16.6984 11.8948C16.8631 11.8917 16.9326 11.744 17.0344 11.648C17.4681 11.2393 17.8203 10.7402 18.3048 10.3877C18.3056 10.845 18.3064 11.3022 18.3071 11.7594C17.9205 11.9103 17.6789 12.2203 17.4846 12.5822C17.4308 12.588 17.3773 12.5982 17.3235 12.5988C16.6434 12.6085 16.6434 12.6082 16.6984 11.8948Z" fill="#38A6F8"/>
<path fill-rule="evenodd" clip-rule="evenodd" d="M13.5894 10.4629C13.6423 11.1099 13.5953 11.758 13.6073 12.4053C13.6102 12.5587 13.5409 12.588 13.4102 12.599C12.4897 12.6766 12.4898 12.6794 12.4925 11.7251C12.4928 11.6227 12.4964 11.5205 12.4984 11.4181C12.6939 11.2885 12.8617 11.1311 13.0287 10.9595C13.1996 10.7841 13.3246 10.5283 13.5894 10.4629Z" fill="white"/>
<path fill-rule="evenodd" clip-rule="evenodd" d="M6.75188 16.2664C6.90817 16.2946 7.01221 16.2101 7.11502 16.0998C7.42965 15.7618 7.7499 15.4296 8.06999 15.0973C8.15201 15.0121 8.22001 14.9002 8.35665 14.9009C8.39204 15.2654 8.38885 15.6299 8.35934 15.9946C7.96677 16.2297 7.65361 16.5475 7.43788 16.9667C6.57577 17.0082 6.73908 17.0965 6.75188 16.2664Z" fill="#38A6F8"/>
<path fill-rule="evenodd" clip-rule="evenodd" d="M8.15723 8.74494C8.15731 8.65839 8.20419 8.59816 8.25898 8.54083C8.7405 8.037 9.22169 7.53275 9.7024 7.02815C9.76444 6.96304 9.82673 6.90101 9.92318 6.90443C9.95555 7.33701 9.95262 7.76967 9.92571 8.2025C9.66758 8.29665 9.49751 8.48461 9.39698 8.74682C8.98371 8.74614 8.57042 8.74554 8.15723 8.74494Z" fill="#38A6F8"/>
<path fill-rule="evenodd" clip-rule="evenodd" d="M13.5618 15.1765C13.8167 15.1271 13.9192 14.8781 14.0959 14.7264C14.2839 14.565 14.4165 14.3389 14.6354 14.2122C14.6784 14.6687 14.6751 15.1253 14.6372 15.582C14.4886 15.5768 14.4163 15.699 14.3238 15.7876C14.0656 16.0352 13.8513 16.3313 13.5629 16.5457C13.5194 16.0893 13.5223 15.633 13.5618 15.1765Z" fill="white"/>
<path fill-rule="evenodd" clip-rule="evenodd" d="M13.5893 10.4629C13.3245 10.5283 13.1996 10.7841 13.0287 10.9596C12.8617 11.1312 12.6939 11.2885 12.4984 11.4181C12.4099 11.0843 12.2007 10.9382 11.873 10.9763C12.0432 10.641 12.3537 10.4398 12.5844 10.1621C12.6751 10.0529 12.7974 9.96732 12.7994 9.80114C12.8845 9.79593 12.9696 9.7867 13.0548 9.78627C13.6701 9.78311 13.6701 9.78379 13.5893 10.4629Z" fill="white"/>
<path fill-rule="evenodd" clip-rule="evenodd" d="M6.38965 29.0309C6.5576 28.6949 6.86864 28.4951 7.09595 28.2156C7.17707 28.1157 7.30548 28.05 7.30866 27.8936C7.72211 27.894 8.13555 27.8946 8.54891 27.895C8.43379 28.2148 8.14126 28.3732 7.94705 28.6211C7.84832 28.7472 7.68338 28.8287 7.69952 29.0309C7.26292 29.0309 6.82625 29.0309 6.38965 29.0309Z" fill="#006ada"/>
<path fill-rule="evenodd" clip-rule="evenodd" d="M20.2906 27.895C20.1698 28.2263 19.8668 28.391 19.6625 28.6461C19.5668 28.7656 19.4348 28.857 19.4236 29.0328C18.9943 29.0322 18.565 29.0317 18.1357 29.0312C18.2869 28.6962 18.5983 28.5122 18.815 28.2391C18.9015 28.13 19.0437 28.0623 19.0504 27.8936C19.4637 27.894 19.8772 27.8945 20.2906 27.895Z" fill="#006ada"/>
<path fill-rule="evenodd" clip-rule="evenodd" d="M4.30762 31.222C4.45413 30.8834 4.76867 30.7021 4.98432 30.4283C5.07058 30.319 5.21293 30.2516 5.22149 30.0835C5.63502 30.0839 6.04854 30.0843 6.46207 30.0847C6.3383 30.4143 6.03745 30.5814 5.83159 30.836C5.73481 30.9556 5.60689 31.05 5.59173 31.2237C5.16369 31.2232 4.73565 31.2226 4.30762 31.222Z" fill="#006ada"/>
<path fill-rule="evenodd" clip-rule="evenodd" d="M16.0488 31.222C16.1953 30.8833 16.5104 30.7027 16.7256 30.4284C16.8116 30.3188 16.9542 30.2516 16.9628 30.0835C17.3545 30.084 17.7464 30.0846 18.1382 30.0852C18.1616 30.2751 18.0133 30.3578 17.9203 30.4776C17.7261 30.7277 17.4162 30.878 17.333 31.2237C16.9049 31.2232 16.4769 31.2226 16.0488 31.222Z" fill="#006ada"/>
<path fill-rule="evenodd" clip-rule="evenodd" d="M7.69934 29.031C7.6832 28.8288 7.84814 28.7472 7.94687 28.6211C8.14108 28.3733 8.43361 28.2149 8.54873 27.8951C9.43407 27.8354 9.42886 27.8354 9.42274 28.7546C9.42136 28.9607 9.39225 29.0613 9.16037 29.05C8.67412 29.0266 8.18641 29.0353 7.69934 29.031Z" fill="#006ada"/>
<path fill-rule="evenodd" clip-rule="evenodd" d="M8.8302 21.298C8.83134 20.7576 8.83135 20.7576 9.33879 20.7565C9.944 20.7552 9.94775 20.7552 9.94294 21.3989C9.93821 22.0145 10.022 21.9155 9.45082 21.926C9.43997 21.9262 9.42913 21.9261 9.41837 21.9261C8.82882 21.9261 8.82882 21.9261 8.8302 21.298Z" fill="white"/>
<path fill-rule="evenodd" clip-rule="evenodd" d="M14.0713 21.3399C14.0712 20.7599 14.0712 20.7599 14.6334 20.76C15.1837 20.7601 15.1837 20.7601 15.1844 21.326C15.1852 21.9268 15.1852 21.9268 14.6039 21.926C14.0715 21.9254 14.0715 21.9254 14.0713 21.3399Z" fill="white"/>
<path fill-rule="evenodd" clip-rule="evenodd" d="M18.2677 16.4058C18.5208 16.3495 18.6215 16.0971 18.8025 15.948C18.9936 15.7906 19.1107 15.5443 19.3515 15.4463C19.3573 15.8883 19.3586 16.3306 19.3715 16.7724C19.3761 16.9304 19.332 17.0056 19.1719 16.9937C19.0425 16.984 18.912 16.9896 18.7821 16.9893C18.2265 16.9881 18.2265 16.9883 18.2677 16.4058Z" fill="#38A6F8"/>
<path fill-rule="evenodd" clip-rule="evenodd" d="M19.9645 20.7742C20.4119 20.7315 20.4119 20.7315 20.4119 21.1761C20.412 21.9258 20.412 21.9273 19.6926 21.9249C19.478 21.924 19.2634 21.9121 19.0488 21.9052C19.1525 21.6615 19.3803 21.5335 19.5317 21.3346C19.6747 21.1467 19.9146 21.0407 19.9645 20.7742Z" fill="#38A6F8"/>
<path fill-rule="evenodd" clip-rule="evenodd" d="M4.9628 18.0324C4.96761 18.1767 4.86292 18.2505 4.78106 18.3372C4.50044 18.6337 4.21801 18.9283 3.93608 19.2235C3.84517 19.3186 3.76299 19.4304 3.61248 19.4156C3.60849 19.0202 3.60979 18.6247 3.59797 18.2297C3.59316 18.0694 3.64273 18.0061 3.79984 18.0116C4.18728 18.0248 4.57512 18.0262 4.9628 18.0324Z" fill="#38A6F8"/>
<path fill-rule="evenodd" clip-rule="evenodd" d="M13.5623 16.5457C13.8507 16.3312 14.065 16.0352 14.3232 15.7875C14.4156 15.6988 14.4879 15.5767 14.6366 15.5819C14.6438 15.978 14.6471 16.3742 14.66 16.7701C14.6654 16.9361 14.5959 16.99 14.4473 16.9836C14.2745 16.9761 14.1012 16.9822 13.9281 16.9819C13.5304 16.9815 13.5304 16.9813 13.5623 16.5457Z" fill="white"/>
<path fill-rule="evenodd" clip-rule="evenodd" d="M6.91707 9.8009C6.92343 9.89659 6.89269 9.97408 6.82624 10.0429C6.52767 10.3521 6.23082 10.6632 5.93568 10.9762C5.87037 11.0456 5.79732 11.0801 5.70552 11.0732C5.70087 10.71 5.70014 10.3466 5.6897 9.98356C5.68546 9.83721 5.73503 9.78039 5.87714 9.78492C6.22357 9.79602 6.5704 9.79628 6.91707 9.8009Z" fill="#38A6F8"/>
<path fill-rule="evenodd" clip-rule="evenodd" d="M11.4617 5.06202C11.8428 5.0551 11.9239 4.64465 12.1791 4.46215C12.2989 4.37646 12.392 4.25642 12.5474 4.23438C12.5557 4.58442 12.5607 4.93454 12.5738 5.28441C12.5792 5.43213 12.5219 5.48562 12.3838 5.48015C12.1895 5.47246 11.9925 5.4587 11.8007 5.48246C11.4673 5.52372 11.3694 5.38403 11.4617 5.06202Z" fill="white"/>
<path fill-rule="evenodd" clip-rule="evenodd" d="M10.4213 12.3069C10.7573 12.208 10.8984 11.8671 11.1492 11.6622C11.2646 11.5679 11.3343 11.4018 11.5149 11.4126C11.5168 11.7386 11.5132 12.0647 11.5229 12.3905C11.5277 12.5518 11.4699 12.6113 11.3174 12.6055C11.0923 12.5969 10.8662 12.5929 10.6416 12.6063C10.4134 12.6199 10.3478 12.5255 10.4213 12.3069Z" fill="white"/>
<path fill-rule="evenodd" clip-rule="evenodd" d="M2.67835 27.8949C2.55753 28.2262 2.25456 28.391 2.05024 28.6461C1.95452 28.7655 1.82261 28.857 1.81128 29.0327C1.56579 29.1025 1.50032 29.0033 1.50301 28.7436C1.5119 27.8799 1.50211 27.8791 2.32247 27.8805C2.44118 27.8808 2.55973 27.8899 2.67835 27.8949Z" fill="#006ada"/>
<path fill-rule="evenodd" clip-rule="evenodd" d="M19.9642 20.7743C19.9143 21.0409 19.6745 21.1468 19.5315 21.3347C19.3802 21.5335 19.1523 21.6616 19.0486 21.9053C18.8319 21.9755 18.7726 21.8872 18.7703 21.6581C18.7614 20.7573 18.7545 20.7568 19.6096 20.7587C19.7278 20.7589 19.846 20.7688 19.9642 20.7743Z" fill="#38A6F8"/>
<path fill-rule="evenodd" clip-rule="evenodd" d="M4.83203 19.7122C5.02901 19.2753 5.36092 18.9762 5.74444 18.7297C5.74884 18.9993 5.74884 19.2691 5.75936 19.5384C5.76515 19.6861 5.70686 19.7388 5.57054 19.7324C5.32464 19.7211 5.07825 19.7185 4.83203 19.7122Z" fill="#38A6F8"/>
<path fill-rule="evenodd" clip-rule="evenodd" d="M7.4375 16.9667C7.65323 16.5475 7.96639 16.2298 8.35896 15.9946C8.36124 16.0057 8.36573 16.0167 8.36556 16.0276C8.34592 17.2073 8.61847 16.9757 7.4375 16.9667Z" fill="#38A6F8"/>
<path fill-rule="evenodd" clip-rule="evenodd" d="M17.4844 12.582C17.6787 12.2202 17.9203 11.9101 18.3069 11.7593C18.3088 12.7851 18.5117 12.5893 17.4844 12.582Z" fill="#38A6F8"/>
<path fill-rule="evenodd" clip-rule="evenodd" d="M6.65527 5.48508C6.78238 5.15717 7.0114 4.93426 7.31184 4.78491C7.36092 5.44766 7.36092 5.44766 6.65527 5.48508Z" fill="#FEFEFE"/>
<path fill-rule="evenodd" clip-rule="evenodd" d="M21.9189 31.2222C22.0447 30.9559 22.2375 30.7594 22.4874 30.6223C22.5105 31.3501 22.5958 31.2399 21.9189 31.2222Z" fill="#006ada"/>
<path fill-rule="evenodd" clip-rule="evenodd" d="M9.39648 8.74672C9.49701 8.48451 9.66708 8.29655 9.92521 8.20239C9.9588 8.88043 10.0173 8.76227 9.39648 8.74672Z" fill="#38A6F8"/>
<path fill-rule="evenodd" clip-rule="evenodd" d="M21.3926 24.0578C21.3926 23.6947 21.3926 23.3317 21.3926 22.9685C21.5393 23.3336 21.4435 23.7117 21.4474 24.0841C21.4302 24.0728 21.4119 24.0643 21.3926 24.0578Z" fill="#E8D1AB"/>
<path fill-rule="evenodd" clip-rule="evenodd" d="M2.62005 22.9685C2.62005 23.3316 2.62005 23.6946 2.61997 24.0578C2.60057 24.0643 2.58238 24.0732 2.56526 24.0845C2.56918 23.7117 2.4733 23.3336 2.62005 22.9685Z" fill="#E8D1AB"/>
<path fill-rule="evenodd" clip-rule="evenodd" d="M1.56816 30.0872C1.55235 30.1063 1.53653 30.1253 1.52071 30.1444C1.51052 30.1017 1.52487 30.0813 1.56816 30.0872Z" fill="#009EDF"/>
<path fill-rule="evenodd" clip-rule="evenodd" d="M2.56445 24.0843C2.58157 24.073 2.59984 24.0641 2.61916 24.0576C2.62397 24.0745 2.62397 24.0916 2.61916 24.1086C2.59103 24.125 2.56739 24.1302 2.56445 24.0843Z" fill="#B49C47"/>
<path fill-rule="evenodd" clip-rule="evenodd" d="M21.3922 24.0579C21.4115 24.0643 21.4298 24.0729 21.447 24.0842C21.444 24.1304 21.4205 24.1253 21.3923 24.109C21.3875 24.0918 21.3874 24.0749 21.3922 24.0579Z" fill="#B49C47"/>
<path fill-rule="evenodd" clip-rule="evenodd" d="M22.4897 30.1446C22.4739 30.1253 22.4581 30.1064 22.4424 30.0872C22.4857 30.0813 22.4999 30.1018 22.4897 30.1446Z" fill="#009EDF"/>
<path fill-rule="evenodd" clip-rule="evenodd" d="M9.33203 31.2243C9.35502 31.2065 9.37802 31.1885 9.40101 31.1707C9.40362 31.2247 9.37337 31.2323 9.33203 31.2243Z" fill="#009EDF"/>
<path fill-rule="evenodd" clip-rule="evenodd" d="M14.6105 31.1707C14.6334 31.1885 14.6563 31.2064 14.6792 31.2242C14.6381 31.2321 14.6079 31.2245 14.6105 31.1707Z" fill="#009EDF"/>
</svg>
