<svg id="Layer_1" data-name="Layer 1" xmlns="http://www.w3.org/2000/svg" viewBox="0 0 81.46 100"><defs><style>.cls-1{fill:#9e4cf1;}</style></defs><title>Vector Smart Object2</title><path class="cls-1" d="M50,38.83a8.6,8.6,0,0,0,3.15-.6l1.13,1.68a16,16,0,0,1-8.56,0l1.13-1.68A8.4,8.4,0,0,0,50,38.83Zm-1.07-3.71L50,33.52l1.07,1.6a4.83,4.83,0,0,1-2.14,0Zm6.34,8.25V75.65H51.8V44A20.57,20.57,0,0,0,55.27,43.37ZM48.2,44V75.65H44.73V43.37A20.57,20.57,0,0,0,48.2,44ZM41.08,78.33H58.86V40.84a1.76,1.76,0,0,0-.3-1L51.49,29.3a1.79,1.79,0,0,0-3,0L41.44,39.84a1.76,1.76,0,0,0-.3,1V75.65Z" transform="translate(-9.27)"/><path class="cls-1" d="M71.39,18.64A30.48,30.48,0,0,0,28.11,61.55a22.76,22.76,0,0,1,6.56,15.89v4.12a13.31,13.31,0,0,0,8.87,12.53v.82A5.09,5.09,0,0,0,48.63,100h2.74a5.09,5.09,0,0,0,5.09-5.09v-.82a13.31,13.31,0,0,0,8.87-12.53V77.44a22.74,22.74,0,0,1,6.53-15.87,30.47,30.47,0,0,0-.47-42.93ZM52.87,94.91h0a1.51,1.51,0,0,1-1.5,1.5H48.63a1.51,1.51,0,0,1-1.5-1.5v-.09q.42,0,.84,0H52q.42,0,.84,0v.09ZM52,91.26H48a9.71,9.71,0,0,1-8.85-5.75H60.89A9.72,9.72,0,0,1,52,91.26Zm9.71-9.71c0,.13,0,.25,0,.37H38.27c0-.12,0-.24,0-.37V79.24H61.74v2.31ZM48.2,75.65h-10a26.46,26.46,0,0,0-7.51-16.6A26.92,26.92,0,0,1,49.61,13.46H50A26.89,26.89,0,0,1,69.29,59.07,26.36,26.36,0,0,0,61.8,75.65H48.2Z" transform="translate(-9.27)"/><path class="cls-1" d="M56.72,16.79a1.8,1.8,0,0,0-1,3.46A21,21,0,0,1,70.89,40.34a1.8,1.8,0,0,0,3.6,0A24.61,24.61,0,0,0,56.72,16.79Z" transform="translate(-9.27)"/><path class="cls-1" d="M51.35,15.89c-.57,0-1.14,0-1.7,0a1.8,1.8,0,0,0,0,3.59h0c.48,0,1,0,1.45,0h.1a1.8,1.8,0,0,0,.1-3.59Z" transform="translate(-9.27)"/><path class="cls-1" d="M88.93,38.93H85.8a1.8,1.8,0,1,0,0,3.6h3.13a1.8,1.8,0,1,0,0-3.6Z" transform="translate(-9.27)"/><path class="cls-1" d="M14.2,38.93H11.07a1.8,1.8,0,1,0,0,3.6H14.2a1.8,1.8,0,1,0,0-3.6Z" transform="translate(-9.27)"/><path class="cls-1" d="M85.27,20.37a1.79,1.79,0,0,0-2.45-.66L80.1,21.28a1.8,1.8,0,0,0,.9,3.35,1.81,1.81,0,0,0,.9-.24l2.72-1.57A1.8,1.8,0,0,0,85.27,20.37Z" transform="translate(-9.27)"/><path class="cls-1" d="M20.55,57.73a1.8,1.8,0,0,0-2.45-.66l-2.72,1.57a1.8,1.8,0,0,0,.9,3.35,1.71,1.71,0,0,0,.9-.24l2.71-1.56A1.8,1.8,0,0,0,20.55,57.73Z" transform="translate(-9.27)"/><path class="cls-1" d="M70.37,5.46a1.81,1.81,0,0,0-2.46.65L66.34,8.83a1.8,1.8,0,1,0,3.11,1.8L71,7.91A1.79,1.79,0,0,0,70.37,5.46Z" transform="translate(-9.27)"/><path class="cls-1" d="M50,0a1.8,1.8,0,0,0-1.8,1.8V4.93a1.8,1.8,0,0,0,3.6,0V1.8A1.8,1.8,0,0,0,50,0Z" transform="translate(-9.27)"/><path class="cls-1" d="M33.66,8.83,32.09,6.11A1.8,1.8,0,0,0,29,7.91l1.57,2.72a1.8,1.8,0,1,0,3.11-1.8Z" transform="translate(-9.27)"/><path class="cls-1" d="M19.9,21.28l-2.72-1.57a1.8,1.8,0,0,0-1.8,3.11l2.72,1.57a1.81,1.81,0,0,0,.9.24,1.8,1.8,0,0,0,.9-3.35Z" transform="translate(-9.27)"/><path class="cls-1" d="M84.62,58.64,81.9,57.07a1.8,1.8,0,0,0-1.79,3.12l2.71,1.56a1.71,1.71,0,0,0,.9.24,1.79,1.79,0,0,0,1.55-.89A1.81,1.81,0,0,0,84.62,58.64Z" transform="translate(-9.27)"/></svg>