<svg id="Layer_1" data-name="Layer 1" xmlns="http://www.w3.org/2000/svg" viewBox="0 0 87.99 100"><defs><style>.cls-1{fill:#006ada;}</style></defs><title>Vector Smart Object 1</title><path class="cls-1" d="M32.69,41.94a4.53,4.53,0,0,1-4.84-4.84H24.62a7.83,7.83,0,0,0,8.07,8.06,7.82,7.82,0,0,0,8.06-8.06H37.53A4.53,4.53,0,0,1,32.69,41.94Z" transform="translate(-5.99)"/><path class="cls-1" d="M84.92,30.5,86.72,29,94,11.64V0l-9.38,7L75.17,29H67.59l-3-6.45h1.94A6.43,6.43,0,0,0,73,16.16V9.68h3.23V0H66.56V9.68h3.23v6.48a3.2,3.2,0,0,1-3.23,3.19H63.13L59,10.44,63.94,8,47.77,1.05,44,14.35A14.51,14.51,0,1,0,21.4,26.6V29l.52,1.47Zm-15.13-24V3.26H73V6.48ZM64,29H57.92L55,22.58h6.07ZM49.86,5.46l6.42,2.75L54.76,9l4.81,10.4h-6l-3.93-8.62-1.44.73ZM54.38,29H47.21V25.84a3.25,3.25,0,0,1,3.22-3.26h1ZM48,15.12l2,4.31a6.44,6.44,0,0,0-6,6.41V29H37.53V26.6a14.59,14.59,0,0,0,6.15-9.3Zm-29.87-.57a11.29,11.29,0,1,1,16.94,9.76l-.81.47V29H31.08V19.09a4.85,4.85,0,1,0-3.23,0V29H24.62V24.78l-.8-.47A11.33,11.33,0,0,1,18.17,14.55Zm11.29,1.61a1.62,1.62,0,0,1,0-3.23,1.62,1.62,0,1,1,0,3.23ZM83.23,29H78.68l8-18.74,3.58,1.78ZM90.75,8.71,89,7.82l1.78-1.34Z" transform="translate(-5.99)"/><path class="cls-1" d="M21.37,29H17.46l-.25,1.32A36.45,36.45,0,0,0,17,42.77L6,62.38l12.15,2.78V85.48H34.27V100H73V77.52A42,42,0,0,0,90.71,43V37.11a36.75,36.75,0,0,0-.62-6.74L89.86,29H21.37Zm65.77,3.23a33,33,0,0,1,.35,4.84V43a39.29,39.29,0,0,1-17,32.37l-.71.48V96.77H37.5V82.26H21.37V62.58L10.91,60.2l9.45-16.84-.1-.57a33.29,33.29,0,0,1-.11-10.53h67Z" transform="translate(-5.99)"/></svg>