<svg id="Layer_1" data-name="Layer 1" xmlns="http://www.w3.org/2000/svg" viewBox="0 0 100 100"><defs><style>.cls-1{fill:#e25068;}</style></defs><title>Vector Smart Object3</title><path class="cls-1" d="M37.35,55h3.21V30.92a9.64,9.64,0,0,0-9.64-9.63h-1.6V18.07H26.1v3.22H21.29a9.64,9.64,0,0,0-9.64,9.63v3.22a3.22,3.22,0,0,1-3.22,3.21H5.22l2.89-3.86L5.54,31.57,0,39l5.54,7.39,2.57-1.93L5.22,40.56H8.43a6.43,6.43,0,0,0,6.43-6.42V30.92a6.43,6.43,0,0,1,6.43-6.42h9.63a6.43,6.43,0,0,1,6.43,6.42V55Zm46.58,8.15v3.1h4.82V63.05H87.53ZM64.66,44v6.2a8,8,0,0,1-8,8H55v3.22h1.61A11.26,11.26,0,0,0,67.87,50.2V35.74a8,8,0,0,1,8-8h6.43A11.26,11.26,0,0,0,93.57,16.47V5.22l3.86,2.89,1.93-2.57L92,0,84.58,5.54l1.93,2.57,3.85-2.89V16.47a8,8,0,0,1-8,8H75.9a11,11,0,0,0-10.77,8h-2.3l-.06,3.21h1.89V44ZM26.1,47.85v4h3.22V46.5Z"/><path class="cls-1" d="M87.53,63.05A13.68,13.68,0,0,0,79,55.59,16.8,16.8,0,0,0,67.87,41.53l-3.21-.78a17.41,17.41,0,0,0-2.41-.19A16.67,16.67,0,0,0,52,44.11a11.12,11.12,0,0,0-11.41-3.06,11,11,0,0,0-3.21,1.55c-.46.46-1.35,1-1.93,1.69A13.6,13.6,0,0,0,18.21,55.58,13.65,13.65,0,0,0,11,76.6,13.4,13.4,0,0,0,10,81.53,13.67,13.67,0,0,0,23.69,95.18a15.25,15.25,0,0,0,1.8-.13l.33,0a14.76,14.76,0,0,0,1.75-.39A13.6,13.6,0,0,0,43,94.14a13.63,13.63,0,0,0,21.87.71,13.49,13.49,0,0,0,7,1.94A13.65,13.65,0,0,0,84.69,78.4a13.6,13.6,0,0,0,3.84-12.13ZM92,0,29.32,47.28A10.6,10.6,0,0,1,31.73,47a10.37,10.37,0,0,1,3.67.68l1.15.43.72-1s-.57,1.12.08-.1,3.21-2.54,3.21-2.54a7.89,7.89,0,0,1,9,1.82A17.32,17.32,0,0,0,45,57.43c0,9.3,8.43,16.87,16.47,16.87V71.08C55,71.08,48.19,65,48.19,57.43a13.92,13.92,0,0,1,3.66-9.08l.92-.78a13.64,13.64,0,0,1,9.43-3.8,14.24,14.24,0,0,1,2.46.23l3.21,1a13.6,13.6,0,0,1,8,11.94l0,1.26,1.24.25a10.42,10.42,0,0,1,6.77,4.73l1.29,3.1a10.13,10.13,0,0,1,.32,2.4A10.39,10.39,0,0,1,83,75.53a13.47,13.47,0,0,0-10.17-5.41l-.21,3c5.34.35,9.54,4.2,9.73,10.37a10.43,10.43,0,0,1-16.84,7.86l-.64-.5a10.38,10.38,0,0,1-3.37-7L58.25,84a13.61,13.61,0,0,0,4.08,8.85A10.4,10.4,0,0,1,44.87,91l-1-2L42.3,90.54a10.34,10.34,0,0,1-11,2.34,13.66,13.66,0,0,0,6.08-11.35c0-.35-.05-.68-.07-1a13.57,13.57,0,0,0,6.88-3.37L42,74.77a10.37,10.37,0,0,1-5.32,2.59,13.61,13.61,0,0,0-6.62-7.93l-1.5,2.85a10.43,10.43,0,0,1-1.3,19,10.71,10.71,0,0,1-1.72.47h-.11a10,10,0,0,1-1.73.16,10.41,10.41,0,0,1-9.42-14.91l.44-.93-.66-.79a10.45,10.45,0,0,1,6-16.9l1.23-.25.06-1.25a10.46,10.46,0,0,1,4.79-8.31Z"/><rect class="cls-1" x="74.3" y="63.05" width="4.82" height="3.21"/><rect class="cls-1" x="82.33" y="32.53" width="4.82" height="3.21"/><path class="cls-1" d="M57.41,34.22,59,31.44a8.19,8.19,0,0,1-2.85-2.79l-2.74,1.67A11.49,11.49,0,0,0,57.41,34.22Z"/><path class="cls-1" d="M51.81,24.5h0c0,.16,0,.33,0,.5L55,24.64v-5H51.81Z"/><rect class="cls-1" x="51.81" y="10.04" width="3.21" height="4.82"/><path class="cls-1" d="M92.6,62.07l1.55,2.81a11.35,11.35,0,0,0,4.06-3.79l-2.7-1.74A8.16,8.16,0,0,1,92.6,62.07Z"/><path class="cls-1" d="M96.79,55c0,.19,0,.38,0,.57l3.2.22c0-.26,0-.52,0-.79V50.2H96.79Z"/><rect class="cls-1" x="72.69" y="32.53" width="4.82" height="3.21"/><path class="cls-1" d="M99.61,40.85l-3.1.84a8.14,8.14,0,0,1,.28,2.08v1.61H100V43.77A11.1,11.1,0,0,0,99.61,40.85Z"/><path class="cls-1" d="M96.87,36a11.31,11.31,0,0,0-4.71-2.95l-1,3.06a8.1,8.1,0,0,1,3.37,2.11Z"/><polygon class="cls-1" points="51.81 5.22 55.02 5.22 58.88 8.11 60.8 5.54 53.41 0 46.02 5.54 47.95 8.11 51.81 5.22"/><rect class="cls-1" x="26.1" y="8.43" width="3.21" height="4.82"/><rect class="cls-1" x="26.1" y="37.35" width="3.21" height="4.82"/><rect class="cls-1" x="26.1" y="27.71" width="3.21" height="4.82"/><rect class="cls-1" x="26.1" y="56.63" width="3.21" height="4.82"/><polygon class="cls-1" points="27.71 4.02 33.17 8.11 35.1 5.54 27.71 0 20.32 5.54 22.25 8.11 27.71 4.02"/></svg>