<svg id="SvgjsSvg1074" width="288" height="288" xmlns="http://www.w3.org/2000/svg" version="1.1" xmlns:xlink="http://www.w3.org/1999/xlink" xmlns:svgjs="http://svgjs.com/svgjs"><path id="SvgjsPath1080" d="M 144,0 C 5,0 0,5 0,144 0,283 5,288 144,288 283,288 288,283 288,144 288,5 283,0 144,0 Z" fill="#006ada" transform="matrix(0.7916,0,0,0.7916,30.009600000000006,30.009600000000006)"></path><defs id="SvgjsDefs1075"></defs><g id="SvgjsG1076" transform="matrix(0.76,0,0,0.76,34.55994323730468,34.56011169433593)"><svg xmlns="http://www.w3.org/2000/svg" xmlns:xlink="http://www.w3.org/1999/xlink" width="288" height="288" viewBox="0 0 600 600"><defs><rect id="a" width="600" height="600" fill="#000000" class="color000 svgShape"></rect></defs><clipPath id="b"><use overflow="visible" xlink:href="#a"></use></clipPath><path fill="#ffffff" d="M395.943,412.805H204.046c-37.356,0-67.749-30.606-67.749-68.231   c0-31.906,21.454-58.967,51.735-66.313c-0.035-0.707-0.057-1.425-0.057-2.153c0-24.998,20.209-45.33,45.039-45.33   c8.164,0,16.138,2.243,23.068,6.403c11.933-25.244,29.72-49.984,74.063-49.984c58.148,0,84.179,45.565,84.179,90.727   c0,0.325,0,0.65-0.012,0.976c28.9,8.187,49.39,35.047,49.39,65.674C463.702,382.198,433.311,412.805,395.943,412.805    M233.014,242.26c-18.505,0-33.555,15.186-33.555,33.847c0,1.996,0.18,3.914,0.505,5.798l0.964,5.708l-5.72,0.919   c-27.487,4.385-47.426,27.959-47.426,56.041c0,31.29,25.244,56.747,56.264,56.747h191.897c31.031,0,56.274-25.457,56.274-56.747   c0-26.86-18.919-50.243-44.992-55.592l-4.925-1.021l0.349-5.001c0.111-1.672,0.189-3.343,0.189-5.036   c0-39.442-22.473-79.243-72.693-79.243c-41.236,0-54.975,23.438-66.47,49.547l-3.129,7.088l-5.865-5.036   C248.647,245.109,240.954,242.26,233.014,242.26" clip-path="url(#b)" class="colorFFF svgShape"></path></svg></g></svg>