<svg id="SvgjsSvg1084" width="288" height="288" xmlns="http://www.w3.org/2000/svg" version="1.1" xmlns:xlink="http://www.w3.org/1999/xlink" xmlns:svgjs="http://svgjs.com/svgjs"><path id="SvgjsPath1094" d="M 144,0 C 5,0 0,5 0,144 0,283 5,288 144,288 283,288 288,283 288,144 288,5 283,0 144,0 Z" fill="#006ada" transform="matrix(0.7916,0,0,0.7916,30.009600000000006,30.009600000000006)"></path><defs id="SvgjsDefs1085"></defs><g id="SvgjsG1086" transform="matrix(0.8,0,0,0.8,28.799984741210935,28.799998474121082)"><svg xmlns="http://www.w3.org/2000/svg" xmlns:xlink="http://www.w3.org/1999/xlink" width="288" height="288" viewBox="0 0 600 600"><defs><rect id="a" width="600" height="600" fill="#000000" class="color000 svgShape"></rect></defs><clipPath id="b"><use overflow="visible" xlink:href="#a"></use></clipPath><path fill="#ffffff" d="M421.723,408.595H178.28c-42.11,0-47.385-36.344-47.428-36.712   c-0.226-1.672,0.251-3.378,1.291-4.678c1.135-1.411,2.807-2.221,4.591-2.221h326.534c1.766,0,3.438,0.802,4.573,2.2l0.053,0.064   c1.014,1.299,1.473,2.994,1.256,4.64C468.908,373.487,462.956,408.595,421.723,408.595 M139.93,373.518   c2.054,7.318,10.127,26.546,38.35,26.546h243.442c28.031,0,36.21-19.141,38.322-26.546H139.93z" clip-path="url(#b)" class="colorFFF svgShape"></path><path fill="#ffffff" d="M436.406,372.395H163.588v-180.99h272.818V372.395z M172.459,363.525h255.076   v-163.25H172.459V363.525z" clip-path="url(#b)" class="colorFFF svgShape"></path><polygon fill="#ffffff" points="408.374 343.865 401.651 343.865 401.651 223.292 198.343 223.292 198.343 343.865 191.62 343.865 191.62 216.578 408.374 216.578" clip-path="url(#b)" class="colorFFF svgShape"></polygon><rect width="53.074" height="10.27" x="273.461" y="381.651" fill="#ffffff" clip-path="url(#b)" class="colorFFF svgShape"></rect><polygon fill="#ffffff" points="243.75 313.144 239.697 307.789 303.903 259.08 307.958 264.434" clip-path="url(#b)" class="colorFFF svgShape"></polygon></svg></g></svg>