<svg id="SvgjsSvg1040" width="288" height="288" xmlns="http://www.w3.org/2000/svg" version="1.1" xmlns:xlink="http://www.w3.org/1999/xlink" xmlns:svgjs="http://svgjs.com/svgjs"><path id="SvgjsPath1051" d="M 144,0 C 5,0 0,5 0,144 0,283 5,288 144,288 283,288 288,283 288,144 288,5 283,0 144,0 Z" transform="matrix(0.7916,0,0,0.7916,30.009600000000006,30.009600000000006)" fill="#006ada"></path><defs id="SvgjsDefs1041"></defs><g id="SvgjsG1042" transform="matrix(1,0,0,1,0,0)"><svg xmlns="http://www.w3.org/2000/svg" xmlns:xlink="http://www.w3.org/1999/xlink" width="288" height="288" viewBox="0 0 600 600"><defs><rect id="a" width="600" height="600" fill="#000000" class="color000 svgShape"></rect></defs><clipPath id="b"><use overflow="visible" xlink:href="#a"></use></clipPath><path fill="#ffffff" d="M285.949 189.507h17.594c1.453 0 2.629-1.176 2.629-2.63 0-1.453-1.176-2.629-2.629-2.629h-17.594c-1.454 0-2.63 1.176-2.63 2.629C283.318 188.332 284.495 189.507 285.949 189.507M311.429 189.507h2.63c1.453 0 2.63-1.176 2.63-2.63 0-1.453-1.177-2.629-2.63-2.629h-2.63c-1.454 0-2.629 1.176-2.629 2.629C308.8 188.332 309.975 189.507 311.429 189.507M300.003 410.692c-4.884 0-8.854-3.973-8.854-8.855 0-4.884 3.971-8.855 8.854-8.855 4.885 0 8.855 3.972 8.855 8.855C308.858 406.72 304.888 410.692 300.003 410.692" clip-path="url(#b)" class="colorFFF svgShape"></path><path fill="#ffffff" d="M355.768,437.538H244.239c-13.355,0-24.221-10.861-24.221-24.218V186.672   c0-13.349,10.866-24.211,24.221-24.211h111.529c13.349,0,24.215,10.862,24.215,24.211v226.655   C379.982,426.677,369.116,437.538,355.768,437.538 M244.239,171.876c-8.163,0-14.799,6.64-14.799,14.796V413.32   c0,8.163,6.636,14.802,14.799,14.802h111.529c8.157,0,14.792-6.639,14.792-14.795V186.672c0-8.156-6.635-14.796-14.792-14.796   H244.239z" clip-path="url(#b)" class="colorFFF svgShape"></path><rect width="151.066" height="9.415" x="223.781" y="374.47" fill="#ffffff" clip-path="url(#b)" class="colorFFF svgShape"></rect><rect width="151.066" height="9.416" x="223.781" y="195.062" fill="#ffffff" clip-path="url(#b)" class="colorFFF svgShape"></rect></svg></g></svg>